  0
SECTION
  2
HEADER
  9
$ACADVER
  1
AC1024
  9
$ACADMAINTVER
 70
6
  9
$DWGCODEPAGE
  3
ANSI_1252
  9
$LASTSAVEDBY
  1
ezdxf
  9
$INSBASE
 10
0.0
 20
0.0
 30
0.0
  9
$EXTMIN
 10
1e+20
 20
1e+20
 30
1e+20
  9
$EXTMAX
 10
-1e+20
 20
-1e+20
 30
-1e+20
  9
$LIMMIN
 10
0.0
 20
0.0
  9
$LIMMAX
 10
420.0
 20
297.0
  9
$ORTHOMODE
 70
0
  9
$REGENMODE
 70
1
  9
$FILLMODE
 70
1
  9
$QTEXTMODE
 70
0
  9
$MIRRTEXT
 70
1
  9
$LTSCALE
 40
1.0
  9
$ATTMODE
 70
1
  9
$TEXTSIZE
 40
2.5
  9
$TRACEWID
 40
1.0
  9
$TEXTSTYLE
  7
OpenSans
  9
$CLAYER
  8
0
  9
$CELTYPE
  6
ByLayer
  9
$CECOLOR
 62
256
  9
$CELTSCALE
 40
1.0
  9
$DISPSILH
 70
0
  9
$DIMSCALE
 40
1.0
  9
$DIMASZ
 40
0.175
  9
$DIMEXO
 40
0.125
  9
$DIMDLI
 40
3.75
  9
$DIMRND
 40
0.0
  9
$DIMDLE
 40
0.0
  9
$DIMEXE
 40
0.375
  9
$DIMTP
 40
0.0
  9
$DIMTM
 40
0.0
  9
$DIMTXT
 40
0.25
  9
$DIMCEN
 40
2.5
  9
$DIMTSZ
 40
0.0
  9
$DIMTOL
 70
0
  9
$DIMLIM
 70
0
  9
$DIMTIH
 70
0
  9
$DIMTOH
 70
0
  9
$DIMSE1
 70
0
  9
$DIMSE2
 70
0
  9
$DIMTAD
 70
1
  9
$DIMZIN
 70
12
  9
$DIMBLK
  1
ARCHTICK
  9
$DIMASO
 70
1
  9
$DIMSHO
 70
1
  9
$DIMPOST
  1

  9
$DIMAPOST
  1

  9
$DIMALT
 70
0
  9
$DIMALTD
 70
3
  9
$DIMALTF
 40
0.03937007874
  9
$DIMLFAC
 40
100.0
  9
$DIMTOFL
 70
1
  9
$DIMTVP
 40
0.0
  9
$DIMTIX
 70
0
  9
$DIMSOXD
 70
0
  9
$DIMSAH
 70
0
  9
$DIMBLK1
  1

  9
$DIMBLK2
  1

  9
$DIMSTYLE
  2
EZDXF
  9
$DIMCLRD
 70
0
  9
$DIMCLRE
 70
0
  9
$DIMCLRT
 70
0
  9
$DIMTFAC
 40
0.5
  9
$DIMGAP
 40
0.1
  9
$DIMJUST
 70
0
  9
$DIMSD1
 70
0
  9
$DIMSD2
 70
0
  9
$DIMTOLJ
 70
0
  9
$DIMTZIN
 70
8
  9
$DIMALTZ
 70
0
  9
$DIMALTTZ
 70
0
  9
$DIMUPT
 70
1
  9
$DIMDEC
 70
2
  9
$DIMTDEC
 70
2
  9
$DIMALTU
 70
2
  9
$DIMALTTD
 70
3
  9
$DIMTXSTY
  7
OpenSansCondensed-Light
  9
$DIMAUNIT
 70
0
  9
$DIMADEC
 70
2
  9
$DIMALTRND
 40
0.0
  9
$DIMAZIN
 70
3
  9
$DIMDSEP
 70
46
  9
$DIMATFIT
 70
3
  9
$DIMFRAC
 70
0
  9
$DIMLDRBLK
  1

  9
$DIMLUNIT
 70
2
  9
$DIMLWD
 70
-2
  9
$DIMLWE
 70
-2
  9
$DIMTMOVE
 70
2
  9
$DIMFXL
 40
1.0
  9
$DIMFXLON
 70
0
  9
$DIMJOGANG
 40
0.785398163397
  9
$DIMTFILL
 70
0
  9
$DIMTFILLCLR
 70
0
  9
$DIMARCSYM
 70
0
  9
$DIMLTYPE
  6

  9
$DIMLTEX1
  6

  9
$DIMLTEX2
  6

  9
$DIMTXTDIRECTION
 70
0
  9
$LUNITS
 70
2
  9
$LUPREC
 70
4
  9
$SKETCHINC
 40
1.0
  9
$FILLETRAD
 40
10.0
  9
$AUNITS
 70
0
  9
$AUPREC
 70
2
  9
$MENU
  1
.
  9
$ELEVATION
 40
0.0
  9
$PELEVATION
 40
0.0
  9
$THICKNESS
 40
0.0
  9
$LIMCHECK
 70
0
  9
$CHAMFERA
 40
0.0
  9
$CHAMFERB
 40
0.0
  9
$CHAMFERC
 40
0.0
  9
$CHAMFERD
 40
0.0
  9
$SKPOLY
 70
0
  9
$TDCREATE
 40
2461298.106087963
  9
$TDUCREATE
 40
2458532.153996898
  9
$TDUPDATE
 40
2461298.106087963
  9
$TDUUPDATE
 40
2458532.1544311
  9
$TDINDWG
 40
0.0
  9
$TDUSRTIMER
 40
0.0
  9
$USRTIMER
 70
1
  9
$ANGBASE
 50
0.0
  9
$ANGDIR
 70
0
  9
$PDMODE
 70
0
  9
$PDSIZE
 40
0.0
  9
$PLINEWID
 40
0.0
  9
$SPLFRAME
 70
0
  9
$SPLINETYPE
 70
6
  9
$SPLINESEGS
 70
8
  9
$HANDSEED
  5
2B2
  9
$SURFTAB1
 70
6
  9
$SURFTAB2
 70
6
  9
$SURFTYPE
 70
6
  9
$SURFU
 70
6
  9
$SURFV
 70
6
  9
$UCSBASE
  2

  9
$UCSNAME
  2

  9
$UCSORG
 10
0.0
 20
0.0
 30
0.0
  9
$UCSXDIR
 10
1.0
 20
0.0
 30
0.0
  9
$UCSYDIR
 10
0.0
 20
1.0
 30
0.0
  9
$UCSORTHOREF
  2

  9
$UCSORTHOVIEW
 70
0
  9
$UCSORGTOP
 10
0.0
 20
0.0
 30
0.0
  9
$UCSORGBOTTOM
 10
0.0
 20
0.0
 30
0.0
  9
$UCSORGLEFT
 10
0.0
 20
0.0
 30
0.0
  9
$UCSORGRIGHT
 10
0.0
 20
0.0
 30
0.0
  9
$UCSORGFRONT
 10
0.0
 20
0.0
 30
0.0
  9
$UCSORGBACK
 10
0.0
 20
0.0
 30
0.0
  9
$PUCSBASE
  2

  9
$PUCSNAME
  2

  9
$PUCSORG
 10
0.0
 20
0.0
 30
0.0
  9
$PUCSXDIR
 10
1.0
 20
0.0
 30
0.0
  9
$PUCSYDIR
 10
0.0
 20
1.0
 30
0.0
  9
$PUCSORTHOREF
  2

  9
$PUCSORTHOVIEW
 70
0
  9
$PUCSORGTOP
 10
0.0
 20
0.0
 30
0.0
  9
$PUCSORGBOTTOM
 10
0.0
 20
0.0
 30
0.0
  9
$PUCSORGLEFT
 10
0.0
 20
0.0
 30
0.0
  9
$PUCSORGRIGHT
 10
0.0
 20
0.0
 30
0.0
  9
$PUCSORGFRONT
 10
0.0
 20
0.0
 30
0.0
  9
$PUCSORGBACK
 10
0.0
 20
0.0
 30
0.0
  9
$USERI1
 70
0
  9
$USERI2
 70
0
  9
$USERI3
 70
0
  9
$USERI4
 70
0
  9
$USERI5
 70
0
  9
$USERR1
 40
0.0
  9
$USERR2
 40
0.0
  9
$USERR3
 40
0.0
  9
$USERR4
 40
0.0
  9
$USERR5
 40
0.0
  9
$WORLDVIEW
 70
1
  9
$SHADEDGE
 70
3
  9
$SHADEDIF
 70
70
  9
$TILEMODE
 70
1
  9
$MAXACTVP
 70
64
  9
$PINSBASE
 10
0.0
 20
0.0
 30
0.0
  9
$PLIMCHECK
 70
0
  9
$PEXTMIN
 10
1e+20
 20
1e+20
 30
1e+20
  9
$PEXTMAX
 10
-1e+20
 20
-1e+20
 30
-1e+20
  9
$PLIMMIN
 10
0.0
 20
0.0
  9
$PLIMMAX
 10
420.0
 20
297.0
  9
$UNITMODE
 70
0
  9
$VISRETAIN
 70
1
  9
$PLINEGEN
 70
0
  9
$PSLTSCALE
 70
1
  9
$TREEDEPTH
 70
3020
  9
$CMLSTYLE
  2
Standard
  9
$CMLJUST
 70
0
  9
$CMLSCALE
 40
20.0
  9
$PROXYGRAPHICS
 70
1
  9
$MEASUREMENT
 70
1
  9
$CELWEIGHT
370
-1
  9
$ENDCAPS
280
0
  9
$JOINSTYLE
280
0
  9
$LWDISPLAY
290
1
  9
$INSUNITS
 70
4
  9
$HYPERLINKBASE
  1

  9
$STYLESHEET
  1

  9
$XEDIT
290
1
  9
$CEPSNTYPE
380
0
  9
$PSTYLEMODE
290
1
  9
$FINGERPRINTGUID
  2
{63223925-BCA3-4FE5-B5D4-08404A7DDC43}
  9
$VERSIONGUID
  2
{6D693ECE-2CF1-438A-9439-E6B3AD9DDAAE}
  9
$EXTNAMES
290
1
  9
$PSVPSCALE
 40
0.0
  9
$OLESTARTUP
290
0
  9
$SORTENTS
280
127
  9
$INDEXCTL
280
0
  9
$HIDETEXT
280
1
  9
$XCLIPFRAME
280
1
  9
$HALOGAP
280
0
  9
$OBSCOLOR
 70
257
  9
$OBSLTYPE
280
0
  9
$INTERSECTIONDISPLAY
280
0
  9
$INTERSECTIONCOLOR
 70
257
  9
$DIMASSOC
280
2
  9
$PROJECTNAME
  1

  9
$CAMERADISPLAY
290
0
  9
$LENSLENGTH
 40
50.0
  9
$CAMERAHEIGHT
 40
0.0
  9
$STEPSPERSEC
 40
24.0
  9
$STEPSIZE
 40
100.0
  9
$3DDWFPREC
 40
2.0
  9
$PSOLWIDTH
 40
0.005
  9
$PSOLHEIGHT
 40
0.08
  9
$LOFTANG1
 40
1.570796326795
  9
$LOFTANG2
 40
1.570796326795
  9
$LOFTMAG1
 40
0.0
  9
$LOFTMAG2
 40
0.0
  9
$LOFTPARAM
 70
7
  9
$LOFTNORMALS
280
1
  9
$LATITUDE
 40
37.795
  9
$LONGITUDE
 40
-122.394
  9
$NORTHDIRECTION
 40
0.0
  9
$TIMEZONE
 70
-8000
  9
$LIGHTGLYPHDISPLAY
280
1
  9
$TILEMODELIGHTSYNCH
280
1
  9
$CMATERIAL
347
20
  9
$SOLIDHIST
280
0
  9
$SHOWHIST
280
1
  9
$DWFFRAME
280
2
  9
$DGNFRAME
280
2
  9
$REALWORLDSCALE
290
1
  9
$INTERFERECOLOR
 62
256
  9
$CSHADOW
280
0
  9
$SHADOWPLANELOCATION
 40
0.0
  0
ENDSEC
  0
SECTION
  2
CLASSES
  0
CLASS
  1
ACDBDICTIONARYWDFLT
  2
AcDbDictionaryWithDefault
  3
ObjectDBX Classes
 90
0
 91
0
280
0
281
0
  0
CLASS
  1
SUN
  2
AcDbSun
  3
SCENEOE
 90
1153
 91
0
280
0
281
0
  0
CLASS
  1
VISUALSTYLE
  2
AcDbVisualStyle
  3
ObjectDBX Classes
 90
4095
 91
0
280
0
281
0
  0
CLASS
  1
MATERIAL
  2
AcDbMaterial
  3
ObjectDBX Classes
 90
1153
 91
0
280
0
281
0
  0
CLASS
  1
SCALE
  2
AcDbScale
  3
ObjectDBX Classes
 90
1153
 91
0
280
0
281
0
  0
CLASS
  1
TABLESTYLE
  2
AcDbTableStyle
  3
ObjectDBX Classes
 90
4095
 91
0
280
0
281
0
  0
CLASS
  1
MLEADERSTYLE
  2
AcDbMLeaderStyle
  3
ACDB_MLEADERSTYLE_CLASS
 90
4095
 91
0
280
0
281
0
  0
CLASS
  1
DICTIONARYVAR
  2
AcDbDictionaryVar
  3
ObjectDBX Classes
 90
0
 91
0
280
0
281
0
  0
CLASS
  1
CELLSTYLEMAP
  2
AcDbCellStyleMap
  3
ObjectDBX Classes
 90
1152
 91
0
280
0
281
0
  0
CLASS
  1
MENTALRAYRENDERSETTINGS
  2
AcDbMentalRayRenderSettings
  3
SCENEOE
 90
1024
 91
0
280
0
281
0
  0
CLASS
  1
ACDBDETAILVIEWSTYLE
  2
AcDbDetailViewStyle
  3
ObjectDBX Classes
 90
1025
 91
0
280
0
281
0
  0
CLASS
  1
ACDBSECTIONVIEWSTYLE
  2
AcDbSectionViewStyle
  3
ObjectDBX Classes
 90
1025
 91
0
280
0
281
0
  0
CLASS
  1
RASTERVARIABLES
  2
AcDbRasterVariables
  3
ISM
 90
0
 91
0
280
0
281
0
  0
CLASS
  1
LAYOUT
  2
AcDbLayout
  3
ObjectDBX Classes
 90
0
 91
0
280
0
281
0
  0
CLASS
  1
ACDBPLACEHOLDER
  2
AcDbPlaceHolder
  3
ObjectDBX Classes
 90
0
 91
0
280
0
281
0
  0
ENDSEC
  0
SECTION
  2
TABLES
  0
TABLE
  2
VPORT
  5
8
330
0
100
AcDbSymbolTable
 70
1
  0
VPORT
  5
23
330
8
100
AcDbSymbolTableRecord
100
AcDbViewportTableRecord
  2
*Active
 70
0
 10
0.0
 20
0.0
 11
1.0
 21
1.0
 12
0.0
 22
0.0
 13
0.0
 23
0.0
 14
0.5
 24
0.5
 15
0.5
 25
0.5
 16
0.0
 26
0.0
 36
1.0
 17
0.0
 27
0.0
 37
0.0
 40
1000.0
 41
1.34
 42
50.0
 43
0.0
 44
0.0
 50
0.0
 51
0.0
 71
0
 72
1000
 73
1
 74
3
 75
0
 76
0
 77
0
 78
0
281
0
 65
0
146
0.0
  0
ENDTAB
  0
TABLE
  2
LTYPE
  5
2
330
0
100
AcDbSymbolTable
 70
21
  0
LTYPE
  5
24
330
2
100
AcDbSymbolTableRecord
100
AcDbLinetypeTableRecord
  2
ByBlock
 70
0
  3

 72
65
 73
0
 40
0.0
  0
LTYPE
  5
25
330
2
100
AcDbSymbolTableRecord
100
AcDbLinetypeTableRecord
  2
ByLayer
 70
0
  3

 72
65
 73
0
 40
0.0
  0
LTYPE
  5
26
330
2
100
AcDbSymbolTableRecord
100
AcDbLinetypeTableRecord
  2
Continuous
 70
0
  3

 72
65
 73
0
 40
0.0
  0
LTYPE
  5
2F
330
2
100
AcDbSymbolTableRecord
100
AcDbLinetypeTableRecord
  2
CENTER
 70
0
  3
Center ____ _ ____ _ ____ _ ____ _ ____ _ ____
 72
65
 73
4
 40
5.08
 49
3.175
 74
0
 49
-0.635
 74
0
 49
0.635
 74
0
 49
-0.635
 74
0
  0
LTYPE
  5
30
330
2
100
AcDbSymbolTableRecord
100
AcDbLinetypeTableRecord
  2
CENTERX2
 70
0
  3
Center (2x) ________  __  ________  __  ________
 72
65
 73
4
 40
8.89
 49
6.35
 74
0
 49
-0.635
 74
0
 49
1.27
 74
0
 49
-0.635
 74
0
  0
LTYPE
  5
31
330
2
100
AcDbSymbolTableRecord
100
AcDbLinetypeTableRecord
  2
CENTER2
 70
0
  3
Center (.5x) ____ _ ____ _ ____ _ ____ _ ____
 72
65
 73
4
 40
2.54
 49
1.587
 74
0
 49
-0.318
 74
0
 49
0.318
 74
0
 49
-0.318
 74
0
  0
LTYPE
  5
32
330
2
100
AcDbSymbolTableRecord
100
AcDbLinetypeTableRecord
  2
DASHED
 70
0
  3
Dashed __ __ __ __ __ __ __ __ __ __ __ __ __ _
 72
65
 73
2
 40
1.524
 49
1.27
 74
0
 49
-0.254
 74
0
  0
LTYPE
  5
33
330
2
100
AcDbSymbolTableRecord
100
AcDbLinetypeTableRecord
  2
DASHEDX2
 70
0
  3
Dashed (2x) ____  ____  ____  ____  ____  ____
 72
65
 73
2
 40
3.048
 49
2.54
 74
0
 49
-0.508
 74
0
  0
LTYPE
  5
34
330
2
100
AcDbSymbolTableRecord
100
AcDbLinetypeTableRecord
  2
DASHED2
 70
0
  3
Dashed (.5x) _ _ _ _ _ _ _ _ _ _ _ _ _ _
 72
65
 73
2
 40
0.762
 49
0.635
 74
0
 49
-0.127
 74
0
  0
LTYPE
  5
35
330
2
100
AcDbSymbolTableRecord
100
AcDbLinetypeTableRecord
  2
PHANTOM
 70
0
  3
Phantom ______  __  __  ______  __  __  ______
 72
65
 73
6
 40
6.35
 49
3.175
 74
0
 49
-0.635
 74
0
 49
0.635
 74
0
 49
-0.635
 74
0
 49
0.635
 74
0
 49
-0.635
 74
0
  0
LTYPE
  5
36
330
2
100
AcDbSymbolTableRecord
100
AcDbLinetypeTableRecord
  2
PHANTOMX2
 70
0
  3
Phantom (2x)____________    ____    ____    ____________
 72
65
 73
6
 40
10.795
 49
6.35
 74
0
 49
-0.635
 74
0
 49
1.27
 74
0
 49
-0.635
 74
0
 49
1.27
 74
0
 49
-0.635
 74
0
  0
LTYPE
  5
37
330
2
100
AcDbSymbolTableRecord
100
AcDbLinetypeTableRecord
  2
PHANTOM2
 70
0
  3
Phantom (.5x) ___ _ _ ___ _ _ ___ _ _ ___ _ _ ___
 72
65
 73
6
 40
3.175
 49
1.587
 74
0
 49
-0.318
 74
0
 49
0.318
 74
0
 49
-0.318
 74
0
 49
0.318
 74
0
 49
-0.318
 74
0
  0
LTYPE
  5
38
330
2
100
AcDbSymbolTableRecord
100
AcDbLinetypeTableRecord
  2
DASHDOT
 70
0
  3
Dash dot __ . __ . __ . __ . __ . __ . __ . __
 72
65
 73
4
 40
3.556
 49
2.54
 74
0
 49
-0.508
 74
0
 49
0.0
 74
0
 49
-0.508
 74
0
  0
LTYPE
  5
39
330
2
100
AcDbSymbolTableRecord
100
AcDbLinetypeTableRecord
  2
DASHDOTX2
 70
0
  3
Dash dot (2x) ____  .  ____  .  ____  .  ____
 72
65
 73
4
 40
6.096
 49
5.08
 74
0
 49
-0.508
 74
0
 49
0.0
 74
0
 49
-0.508
 74
0
  0
LTYPE
  5
3A
330
2
100
AcDbSymbolTableRecord
100
AcDbLinetypeTableRecord
  2
DASHDOT2
 70
0
  3
Dash dot (.5x) _ . _ . _ . _ . _ . _ . _ . _
 72
65
 73
4
 40
1.778
 49
1.27
 74
0
 49
-0.254
 74
0
 49
0.0
 74
0
 49
-0.254
 74
0
  0
LTYPE
  5
3B
330
2
100
AcDbSymbolTableRecord
100
AcDbLinetypeTableRecord
  2
DOT
 70
0
  3
Dot .  .  .  .  .  .  .  .  .  .  .  .  .  .  .  .
 72
65
 73
2
 40
0.508
 49
0.0
 74
0
 49
-0.508
 74
0
  0
LTYPE
  5
3C
330
2
100
AcDbSymbolTableRecord
100
AcDbLinetypeTableRecord
  2
DOTX2
 70
0
  3
Dot (2x) .    .    .    .    .    .    .    . 
 72
65
 73
2
 40
1.016
 49
0.0
 74
0
 49
-1.016
 74
0
  0
LTYPE
  5
3D
330
2
100
AcDbSymbolTableRecord
100
AcDbLinetypeTableRecord
  2
DOT2
 70
0
  3
Dot (.5) . . . . . . . . . . . . . . . . . . . 
 72
65
 73
2
 40
0.254
 49
0.0
 74
0
 49
-0.254
 74
0
  0
LTYPE
  5
3E
330
2
100
AcDbSymbolTableRecord
100
AcDbLinetypeTableRecord
  2
DIVIDE
 70
0
  3
Divide __ . . __ . . __ . . __ . . __ . . __
 72
65
 73
6
 40
4.064
 49
2.54
 74
0
 49
-0.508
 74
0
 49
0.0
 74
0
 49
-0.508
 74
0
 49
0.0
 74
0
 49
-0.508
 74
0
  0
LTYPE
  5
3F
330
2
100
AcDbSymbolTableRecord
100
AcDbLinetypeTableRecord
  2
DIVIDEX2
 70
0
  3
Divide (2x) ____  . .  ____  . .  ____  . .  ____
 72
65
 73
6
 40
6.604
 49
5.08
 74
0
 49
-0.508
 74
0
 49
0.0
 74
0
 49
-0.508
 74
0
 49
0.0
 74
0
 49
-0.508
 74
0
  0
LTYPE
  5
40
330
2
100
AcDbSymbolTableRecord
100
AcDbLinetypeTableRecord
  2
DIVIDE2
 70
0
  3
Divide(.5x) _ . _ . _ . _ . _ . _ . _ . _
 72
65
 73
6
 40
2.032
 49
1.27
 74
0
 49
-0.254
 74
0
 49
0.0
 74
0
 49
-0.254
 74
0
 49
0.0
 74
0
 49
-0.254
 74
0
  0
ENDTAB
  0
TABLE
  2
LAYER
  5
1
330
0
100
AcDbSymbolTable
 70
11
  0
LAYER
  5
27
330
1
100
AcDbSymbolTableRecord
100
AcDbLayerTableRecord
  2
0
 70
0
 62
7
  6
Continuous
370
-3
390
13
347
21
  0
LAYER
  5
28
330
1
100
AcDbSymbolTableRecord
100
AcDbLayerTableRecord
  2
Defpoints
 70
0
 62
7
  6
Continuous
290
0
370
-3
390
13
347
21
  0
LAYER
  5
8B
330
1
100
AcDbSymbolTableRecord
100
AcDbLayerTableRecord
  2
BORDER
 70
0
 62
7
  6
Continuous
370
-3
390
13
347
21
  0
LAYER
  5
8C
330
1
100
AcDbSymbolTableRecord
100
AcDbLayerTableRecord
  2
GRID
 70
0
 62
8
  6
Continuous
370
-3
390
13
347
21
  0
LAYER
  5
8D
330
1
100
AcDbSymbolTableRecord
100
AcDbLayerTableRecord
  2
WIRING
 70
0
 62
7
  6
Continuous
370
-3
390
13
347
21
  0
LAYER
  5
8E
330
1
100
AcDbSymbolTableRecord
100
AcDbLayerTableRecord
  2
SYMBOLS
 70
0
 62
7
  6
Continuous
370
-3
390
13
347
21
  0
LAYER
  5
8F
330
1
100
AcDbSymbolTableRecord
100
AcDbLayerTableRecord
  2
TEXT
 70
0
 62
7
  6
Continuous
370
-3
390
13
347
21
  0
LAYER
  5
90
330
1
100
AcDbSymbolTableRecord
100
AcDbLayerTableRecord
  2
TITLE
 70
0
 62
7
  6
Continuous
370
-3
390
13
347
21
  0
LAYER
  5
91
330
1
100
AcDbSymbolTableRecord
100
AcDbLayerTableRecord
  2
TABLE
 70
0
 62
7
  6
Continuous
370
-3
390
13
347
21
  0
LAYER
  5
92
330
1
100
AcDbSymbolTableRecord
100
AcDbLayerTableRecord
  2
BUSBAR
 70
0
 62
7
  6
Continuous
370
-3
390
13
347
21
  0
LAYER
  5
93
330
1
100
AcDbSymbolTableRecord
100
AcDbLayerTableRecord
  2
DASHED
 70
0
 62
7
  6
Continuous
370
-3
390
13
347
21
  0
ENDTAB
  0
TABLE
  2
STYLE
  5
5
330
0
100
AcDbSymbolTable
 70
27
  0
STYLE
  5
29
330
5
100
AcDbSymbolTableRecord
100
AcDbTextStyleTableRecord
  2
Standard
 70
0
 40
0.0
 41
1.0
 50
0.0
 71
0
 42
2.5
  3
NotoSansCJK-Regular.ttc
  4

  0
STYLE
  5
41
330
5
100
AcDbSymbolTableRecord
100
AcDbTextStyleTableRecord
  2
OpenSans-Light
 70
0
 40
0.0
 41
1.0
 50
0.0
 71
0
 42
2.5
  3
OpenSans-Light.ttf
  4

  0
STYLE
  5
42
330
5
100
AcDbSymbolTableRecord
100
AcDbTextStyleTableRecord
  2
OpenSans-Light-Italic
 70
0
 40
0.0
 41
1.0
 50
0.0
 71
0
 42
2.5
  3
OpenSans-LightItalic.ttf
  4

  0
STYLE
  5
43
330
5
100
AcDbSymbolTableRecord
100
AcDbTextStyleTableRecord
  2
OpenSans
 70
0
 40
0.0
 41
1.0
 50
0.0
 71
0
 42
2.5
  3
OpenSans-Regular.ttf
  4

  0
STYLE
  5
44
330
5
100
AcDbSymbolTableRecord
100
AcDbTextStyleTableRecord
  2
OpenSans-Italic
 70
0
 40
0.0
 41
1.0
 50
0.0
 71
0
 42
2.5
  3
OpenSans-Italic.ttf
  4

  0
STYLE
  5
45
330
5
100
AcDbSymbolTableRecord
100
AcDbTextStyleTableRecord
  2
OpenSans-SemiBold
 70
0
 40
0.0
 41
1.0
 50
0.0
 71
0
 42
2.5
  3
OpenSans-SemiBold.ttf
  4

  0
STYLE
  5
46
330
5
100
AcDbSymbolTableRecord
100
AcDbTextStyleTableRecord
  2
OpenSans-SemiBoldItalic
 70
0
 40
0.0
 41
1.0
 50
0.0
 71
0
 42
2.5
  3
OpenSans-SemiBoldItalic.ttf
  4

  0
STYLE
  5
47
330
5
100
AcDbSymbolTableRecord
100
AcDbTextStyleTableRecord
  2
OpenSans-Bold
 70
0
 40
0.0
 41
1.0
 50
0.0
 71
0
 42
2.5
  3
OpenSans-Bold.ttf
  4

  0
STYLE
  5
48
330
5
100
AcDbSymbolTableRecord
100
AcDbTextStyleTableRecord
  2
OpenSans-BoldItalic
 70
0
 40
0.0
 41
1.0
 50
0.0
 71
0
 42
2.5
  3
OpenSans-BoldItalic.ttf
  4

  0
STYLE
  5
49
330
5
100
AcDbSymbolTableRecord
100
AcDbTextStyleTableRecord
  2
OpenSans-ExtraBold
 70
0
 40
0.0
 41
1.0
 50
0.0
 71
0
 42
2.5
  3
OpenSans-ExtraBold.ttf
  4

  0
STYLE
  5
4A
330
5
100
AcDbSymbolTableRecord
100
AcDbTextStyleTableRecord
  2
OpenSans-ExtraBoldItalic
 70
0
 40
0.0
 41
1.0
 50
0.0
 71
0
 42
2.5
  3
OpenSans-ExtraBoldItalic.ttf
  4

  0
STYLE
  5
4B
330
5
100
AcDbSymbolTableRecord
100
AcDbTextStyleTableRecord
  2
OpenSansCondensed-Bold
 70
0
 40
0.0
 41
1.0
 50
0.0
 71
0
 42
2.5
  3
OpenSansCondensed-Bold.ttf
  4

  0
STYLE
  5
4C
330
5
100
AcDbSymbolTableRecord
100
AcDbTextStyleTableRecord
  2
OpenSansCondensed-Light
 70
0
 40
0.0
 41
1.0
 50
0.0
 71
0
 42
2.5
  3
OpenSansCondensed-Light.ttf
  4

  0
STYLE
  5
4D
330
5
100
AcDbSymbolTableRecord
100
AcDbTextStyleTableRecord
  2
OpenSansCondensed-Italic
 70
0
 40
0.0
 41
1.0
 50
0.0
 71
0
 42
2.5
  3
OpenSansCondensed-LightItalic.ttf
  4

  0
STYLE
  5
4E
330
5
100
AcDbSymbolTableRecord
100
AcDbTextStyleTableRecord
  2
LiberationSans
 70
0
 40
0.0
 41
1.0
 50
0.0
 71
0
 42
2.5
  3
LiberationSans-Regular.ttf
  4

  0
STYLE
  5
4F
330
5
100
AcDbSymbolTableRecord
100
AcDbTextStyleTableRecord
  2
LiberationSans-Bold
 70
0
 40
0.0
 41
1.0
 50
0.0
 71
0
 42
2.5
  3
LiberationSans-Bold.ttf
  4

  0
STYLE
  5
50
330
5
100
AcDbSymbolTableRecord
100
AcDbTextStyleTableRecord
  2
LiberationSans-BoldItalic
 70
0
 40
0.0
 41
1.0
 50
0.0
 71
0
 42
2.5
  3
LiberationSans-BoldItalic.ttf
  4

  0
STYLE
  5
51
330
5
100
AcDbSymbolTableRecord
100
AcDbTextStyleTableRecord
  2
LiberationSans-Italic
 70
0
 40
0.0
 41
1.0
 50
0.0
 71
0
 42
2.5
  3
LiberationSans-Italic.ttf
  4

  0
STYLE
  5
52
330
5
100
AcDbSymbolTableRecord
100
AcDbTextStyleTableRecord
  2
LiberationSerif
 70
0
 40
0.0
 41
1.0
 50
0.0
 71
0
 42
2.5
  3
LiberationSerif-Regular.ttf
  4

  0
STYLE
  5
53
330
5
100
AcDbSymbolTableRecord
100
AcDbTextStyleTableRecord
  2
LiberationSerif-Bold
 70
0
 40
0.0
 41
1.0
 50
0.0
 71
0
 42
2.5
  3
LiberationSerif-Bold.ttf
  4

  0
STYLE
  5
54
330
5
100
AcDbSymbolTableRecord
100
AcDbTextStyleTableRecord
  2
LiberationSerif-BoldItalic
 70
0
 40
0.0
 41
1.0
 50
0.0
 71
0
 42
2.5
  3
LiberationSerif-BoldItalic.ttf
  4

  0
STYLE
  5
55
330
5
100
AcDbSymbolTableRecord
100
AcDbTextStyleTableRecord
  2
LiberationSerif-Italic
 70
0
 40
0.0
 41
1.0
 50
0.0
 71
0
 42
2.5
  3
LiberationSerif-Italic.ttf
  4

  0
STYLE
  5
56
330
5
100
AcDbSymbolTableRecord
100
AcDbTextStyleTableRecord
  2
LiberationMono
 70
0
 40
0.0
 41
1.0
 50
0.0
 71
0
 42
2.5
  3
LiberationMono-Regular.ttf
  4

  0
STYLE
  5
57
330
5
100
AcDbSymbolTableRecord
100
AcDbTextStyleTableRecord
  2
LiberationMono-Bold
 70
0
 40
0.0
 41
1.0
 50
0.0
 71
0
 42
2.5
  3
LiberationMono-Bold.ttf
  4

  0
STYLE
  5
58
330
5
100
AcDbSymbolTableRecord
100
AcDbTextStyleTableRecord
  2
LiberationMono-BoldItalic
 70
0
 40
0.0
 41
1.0
 50
0.0
 71
0
 42
2.5
  3
LiberationMono-BoldItalic.ttf
  4

  0
STYLE
  5
59
330
5
100
AcDbSymbolTableRecord
100
AcDbTextStyleTableRecord
  2
LiberationMono-Italic
 70
0
 40
0.0
 41
1.0
 50
0.0
 71
0
 42
2.5
  3
LiberationMono-Italic.ttf
  4

  0
STYLE
  5
8A
330
5
100
AcDbSymbolTableRecord
100
AcDbTextStyleTableRecord
  2
CJK
 70
0
 40
0.0
 41
1.0
 50
0.0
 71
0
 42
2.5
  3
NotoSansCJK-Regular.ttc
  4

  0
ENDTAB
  0
TABLE
  2
VIEW
  5
7
330
0
100
AcDbSymbolTable
 70
0
  0
ENDTAB
  0
TABLE
  2
UCS
  5
6
330
0
100
AcDbSymbolTable
 70
0
  0
ENDTAB
  0
TABLE
  2
APPID
  5
3
330
0
100
AcDbSymbolTable
 70
3
  0
APPID
  5
2A
330
3
100
AcDbSymbolTableRecord
100
AcDbRegAppTableRecord
  2
ACAD
 70
0
  0
APPID
  5
2AF
330
3
100
AcDbSymbolTableRecord
100
AcDbRegAppTableRecord
  2
HATCHBACKGROUNDCOLOR
 70
0
  0
APPID
  5
2B0
330
3
100
AcDbSymbolTableRecord
100
AcDbRegAppTableRecord
  2
EZDXF
 70
0
  0
ENDTAB
  0
TABLE
  2
DIMSTYLE
  5
4
330
0
100
AcDbSymbolTable
 70
12
100
AcDbDimStyleTable
  0
DIMSTYLE
105
2B
330
4
100
AcDbSymbolTableRecord
100
AcDbDimStyleTableRecord
  2
Standard
 70
0
 40
1.0
 41
2.5
 42
0.625
 43
3.75
 44
1.25
 45
0.0
 46
0.0
 47
0.0
 48
0.0
 49
2.5
140
2.5
141
2.5
142
0.0
143
0.03937007874
144
1.0
145
0.0
146
1.0
147
0.625
148
0.0
 69
0
 70
0
 71
0
 72
0
 73
0
 74
0
 75
0
 76
0
 77
1
 78
8
 79
3
170
0
171
3
172
1
173
0
174
0
175
0
176
0
177
0
178
0
179
2
271
2
272
2
273
2
274
3
275
0
276
0
277
2
278
44
279
0
280
0
281
0
282
0
283
0
284
8
285
0
286
0
288
0
289
3
290
0
371
-2
372
-2
  0
DIMSTYLE
105
73
330
4
100
AcDbSymbolTableRecord
100
AcDbDimStyleTableRecord
  2
EZDXF
 70
0
 40
1.0
 41
0.175
 42
0.125
 43
3.75
 44
0.375
 45
0.0
 46
0.0
 47
0.0
 48
0.0
 49
2.5
140
0.25
141
2.5
142
0.0
143
0.03937007874
144
100.0
145
0.0
146
0.5
147
0.1
148
0.0
 69
0
 70
0
 71
0
 72
0
 73
0
 74
0
 75
0
 76
0
 77
1
 78
12
 79
3
170
0
171
3
172
1
173
0
174
0
175
0
176
0
177
0
178
0
179
2
271
2
272
2
273
2
274
3
275
0
276
0
277
2
278
46
279
2
280
0
281
0
282
0
283
0
284
8
285
0
286
0
288
1
289
3
290
0
340
4C
342
74
371
-2
372
-2
  0
DIMSTYLE
105
7C
330
4
100
AcDbSymbolTableRecord
100
AcDbDimStyleTableRecord
  2
EZ_M_100_H25_CM
 70
0
 40
1.0
 41
0.25
 42
0.125
 43
3.75
 44
0.375
 45
0.0
 46
0.0
 47
0.0
 48
0.0
 49
2.5
140
0.25
141
2.5
142
0.125
143
0.03937007874
144
100.0
145
0.0
146
0.5
147
0.1
148
0.0
 69
0
 70
0
 71
0
 72
0
 73
0
 74
0
 75
0
 76
0
 77
1
 78
12
 79
3
170
0
171
3
172
1
173
0
174
0
175
0
176
0
177
0
178
0
179
2
271
2
272
2
273
2
274
3
275
0
276
0
277
2
278
46
279
2
280
0
281
0
282
0
283
0
284
8
285
0
286
0
288
1
289
3
290
0
340
4C
371
-2
372
-2
  0
DIMSTYLE
105
7D
330
4
100
AcDbSymbolTableRecord
100
AcDbDimStyleTableRecord
  2
EZ_M_50_H25_CM
 70
0
 40
1.0
 41
0.125
 42
0.0625
 43
3.75
 44
0.1875
 45
0.0
 46
0.0
 47
0.0
 48
0.0
 49
2.5
140
0.125
141
2.5
142
0.0625
143
0.03937007874
144
100.0
145
0.0
146
0.5
147
0.05
148
0.0
 69
0
 70
0
 71
0
 72
0
 73
0
 74
0
 75
0
 76
0
 77
1
 78
12
 79
3
170
0
171
3
172
1
173
0
174
0
175
0
176
0
177
0
178
0
179
2
271
2
272
2
273
2
274
3
275
0
276
0
277
2
278
46
279
2
280
0
281
0
282
0
283
0
284
8
285
0
286
0
288
1
289
3
290
0
340
4C
371
-2
372
-2
  0
DIMSTYLE
105
7E
330
4
100
AcDbSymbolTableRecord
100
AcDbDimStyleTableRecord
  2
EZ_M_25_H25_CM
 70
0
 40
1.0
 41
0.0625
 42
0.03125
 43
3.75
 44
0.09375
 45
0.0
 46
0.0
 47
0.0
 48
0.0
 49
2.5
140
0.0625
141
2.5
142
0.03125
143
0.03937007874
144
100.0
145
0.0
146
0.5
147
0.025
148
0.0
 69
0
 70
0
 71
0
 72
0
 73
0
 74
0
 75
0
 76
0
 77
1
 78
12
 79
3
170
0
171
3
172
1
173
0
174
0
175
0
176
0
177
0
178
0
179
2
271
2
272
2
273
2
274
3
275
0
276
0
277
2
278
46
279
2
280
0
281
0
282
0
283
0
284
8
285
0
286
0
288
1
289
3
290
0
340
4C
371
-2
372
-2
  0
DIMSTYLE
105
7F
330
4
100
AcDbSymbolTableRecord
100
AcDbDimStyleTableRecord
  2
EZ_M_20_H25_CM
 70
0
 40
1.0
 41
0.05
 42
0.025
 43
3.75
 44
0.07500000000000001
 45
0.0
 46
0.0
 47
0.0
 48
0.0
 49
2.5
140
0.05
141
2.5
142
0.025
143
0.03937007874
144
100.0
145
0.0
146
0.5
147
0.020000000000000004
148
0.0
 69
0
 70
0
 71
0
 72
0
 73
0
 74
0
 75
0
 76
0
 77
1
 78
12
 79
3
170
0
171
3
172
1
173
0
174
0
175
0
176
0
177
0
178
0
179
2
271
2
272
2
273
2
274
3
275
0
276
0
277
2
278
46
279
2
280
0
281
0
282
0
283
0
284
8
285
0
286
0
288
1
289
3
290
0
340
4C
371
-2
372
-2
  0
DIMSTYLE
105
80
330
4
100
AcDbSymbolTableRecord
100
AcDbDimStyleTableRecord
  2
EZ_M_10_H25_CM
 70
0
 40
1.0
 41
0.025
 42
0.0125
 43
3.75
 44
0.037500000000000006
 45
0.0
 46
0.0
 47
0.0
 48
0.0
 49
2.5
140
0.025
141
2.5
142
0.0125
143
0.03937007874
144
100.0
145
0.0
146
0.5
147
0.010000000000000002
148
0.0
 69
0
 70
0
 71
0
 72
0
 73
0
 74
0
 75
0
 76
0
 77
1
 78
12
 79
3
170
0
171
3
172
1
173
0
174
0
175
0
176
0
177
0
178
0
179
2
271
2
272
2
273
2
274
3
275
0
276
0
277
2
278
46
279
2
280
0
281
0
282
0
283
0
284
8
285
0
286
0
288
1
289
3
290
0
340
4C
371
-2
372
-2
  0
DIMSTYLE
105
81
330
4
100
AcDbSymbolTableRecord
100
AcDbDimStyleTableRecord
  2
EZ_M_5_H25_CM
 70
0
 40
1.0
 41
0.0125
 42
0.00625
 43
3.75
 44
0.018750000000000003
 45
0.0
 46
0.0
 47
0.0
 48
0.0
 49
2.5
140
0.0125
141
2.5
142
0.00625
143
0.03937007874
144
100.0
145
0.0
146
0.5
147
0.005000000000000001
148
0.0
 69
0
 70
0
 71
0
 72
0
 73
0
 74
0
 75
0
 76
0
 77
1
 78
12
 79
3
170
0
171
3
172
1
173
0
174
0
175
0
176
0
177
0
178
0
179
2
271
2
272
2
273
2
274
3
275
0
276
0
277
2
278
46
279
2
280
0
281
0
282
0
283
0
284
8
285
0
286
0
288
1
289
3
290
0
340
4C
371
-2
372
-2
  0
DIMSTYLE
105
82
330
4
100
AcDbSymbolTableRecord
100
AcDbDimStyleTableRecord
  2
EZ_M_1_H25_CM
 70
0
 40
1.0
 41
0.0025
 42
0.00125
 43
3.75
 44
0.00375
 45
0.0
 46
0.0
 47
0.0
 48
0.0
 49
2.5
140
0.0025
141
2.5
142
0.00125
143
0.03937007874
144
100.0
145
0.0
146
0.5
147
0.001
148
0.0
 69
0
 70
0
 71
0
 72
0
 73
0
 74
0
 75
0
 76
0
 77
1
 78
12
 79
3
170
0
171
3
172
1
173
0
174
0
175
0
176
0
177
0
178
0
179
2
271
2
272
2
273
2
274
3
275
0
276
0
277
2
278
46
279
2
280
0
281
0
282
0
283
0
284
8
285
0
286
0
288
1
289
3
290
0
340
4C
371
-2
372
-2
  0
DIMSTYLE
105
83
330
4
100
AcDbSymbolTableRecord
100
AcDbDimStyleTableRecord
  2
EZ_RADIUS
 70
0
 40
1.0
 41
0.25
 42
0.125
 43
3.75
 44
0.375
 45
0.0
 46
0.0
 47
0.0
 48
0.0
 49
2.5
140
0.25
141
0.0
142
0.0
143
0.03937007874
144
100.0
145
0.0
146
0.5
147
0.1
148
0.0
 69
0
 70
0
 71
0
 72
0
 73
0
 74
0
 75
0
 76
0
 77
1
 78
12
 79
3
170
0
171
3
172
0
173
0
174
0
175
0
176
0
177
0
178
0
179
2
271
2
272
2
273
2
274
3
275
0
276
0
277
2
278
46
279
1
280
0
281
0
282
0
283
0
284
8
285
0
286
0
288
1
289
3
290
0
340
4C
342
84
371
-2
372
-2
  0
DIMSTYLE
105
88
330
4
100
AcDbSymbolTableRecord
100
AcDbDimStyleTableRecord
  2
EZ_RADIUS_INSIDE
 70
0
 40
1.0
 41
0.25
 42
0.125
 43
3.75
 44
0.375
 45
0.0
 46
0.0
 47
0.0
 48
0.0
 49
2.5
140
0.25
141
0.0
142
0.0
143
0.03937007874
144
100.0
145
0.0
146
0.5
147
0.1
148
0.0
 69
0
 70
0
 71
0
 72
0
 73
0
 74
0
 75
0
 76
0
 77
0
 78
12
 79
3
170
0
171
3
172
0
173
0
174
1
175
0
176
0
177
0
178
0
179
2
271
2
272
2
273
2
274
3
275
0
276
0
277
2
278
46
279
0
280
0
281
0
282
0
283
0
284
8
285
0
286
0
288
1
289
0
290
0
340
4C
342
84
371
-2
372
-2
  0
DIMSTYLE
105
89
330
4
100
AcDbSymbolTableRecord
100
AcDbDimStyleTableRecord
  2
EZ_CURVED
 70
0
 40
1.0
 41
0.25
 42
0.125
 43
3.75
 44
0.375
 45
0.0
 46
0.0
 47
0.0
 48
0.0
 49
2.5
140
0.25
141
2.5
142
0.0
143
0.03937007874
144
100.0
145
0.0
146
0.5
147
0.1
148
0.0
 69
0
 70
0
 71
0
 72
0
 73
0
 74
0
 75
0
 76
0
 77
1
 78
12
 79
2
 90
2
170
0
171
3
172
1
173
0
174
0
175
0
176
0
177
0
178
0
179
2
271
2
272
2
273
2
274
3
275
0
276
0
277
2
278
46
279
2
280
0
281
0
282
0
283
0
284
8
285
0
286
0
288
1
289
3
290
0
340
4C
371
-2
372
-2
  0
ENDTAB
  0
TABLE
  2
BLOCK_RECORD
  5
9
330
0
100
AcDbSymbolTable
 70
5
  0
BLOCK_RECORD
  5
17
330
9
100
AcDbSymbolTableRecord
100
AcDbBlockTableRecord
  2
*Model_Space
340
1A
 70
0
280
1
281
0
  0
BLOCK_RECORD
  5
1B
330
9
100
AcDbSymbolTableRecord
100
AcDbBlockTableRecord
  2
*Paper_Space
340
1E
 70
0
280
1
281
0
  0
BLOCK_RECORD
  5
74
330
9
100
AcDbSymbolTableRecord
100
AcDbBlockTableRecord
  2
_ARCHTICK
340
0
 70
0
280
1
281
0
  0
BLOCK_RECORD
  5
78
330
9
100
AcDbSymbolTableRecord
100
AcDbBlockTableRecord
  2
_CLOSEDFILLED
340
0
 70
0
280
1
281
0
  0
BLOCK_RECORD
  5
84
330
9
100
AcDbSymbolTableRecord
100
AcDbBlockTableRecord
  2
_CLOSEDBLANK
340
0
 70
0
280
1
281
0
  0
ENDTAB
  0
ENDSEC
  0
SECTION
  2
BLOCKS
  0
BLOCK
  5
18
330
17
100
AcDbEntity
  8
0
100
AcDbBlockBegin
  2
*Model_Space
 70
0
 10
0.0
 20
0.0
 30
0.0
  3
*Model_Space
  1

  0
ENDBLK
  5
19
330
17
100
AcDbEntity
  8
0
100
AcDbBlockEnd
  0
BLOCK
  5
1C
330
1B
100
AcDbEntity
  8
0
100
AcDbBlockBegin
  2
*Paper_Space
 70
0
 10
0.0
 20
0.0
 30
0.0
  3
*Paper_Space
  1

  0
ENDBLK
  5
1D
330
1B
100
AcDbEntity
  8
0
100
AcDbBlockEnd
  0
BLOCK
  5
75
330
74
100
AcDbEntity
  8
0
100
AcDbBlockBegin
  2
_ARCHTICK
 70
0
 10
0.0
 20
0.0
 30
0.0
  3
_ARCHTICK
  1

  0
LWPOLYLINE
  5
77
330
74
100
AcDbEntity
  8
0
  6
BYBLOCK
 62
0
100
AcDbPolyline
 90
2
 70
0
 43
0.15
 10
-0.5
 20
-0.5
 10
0.5
 20
0.5
  0
ENDBLK
  5
76
330
74
100
AcDbEntity
  8
0
100
AcDbBlockEnd
  0
BLOCK
  5
79
330
78
100
AcDbEntity
  8
0
100
AcDbBlockBegin
  2
_CLOSEDFILLED
 70
0
 10
0.0
 20
0.0
 30
0.0
  3
_CLOSEDFILLED
  1

  0
SOLID
  5
7B
330
78
100
AcDbEntity
  8
0
  6
BYBLOCK
 62
0
100
AcDbTrace
 10
-1.0
 20
0.16439898372402537
 30
0.0
 11
0.0
 21
0.0
 31
0.0
 12
-1.0
 22
-0.16439898372402537
 32
0.0
 13
-1.0
 23
-0.16439898372402537
 33
0.0
  0
ENDBLK
  5
7A
330
78
100
AcDbEntity
  8
0
100
AcDbBlockEnd
  0
BLOCK
  5
85
330
84
100
AcDbEntity
  8
0
100
AcDbBlockBegin
  2
_CLOSEDBLANK
 70
0
 10
0.0
 20
0.0
 30
0.0
  3
_CLOSEDBLANK
  1

  0
LWPOLYLINE
  5
87
330
84
100
AcDbEntity
  8
0
  6
BYBLOCK
 62
0
100
AcDbPolyline
 90
3
 70
1
 10
-1.0
 20
0.16439898372402537
 10
0.0
 20
0.0
 10
-1.0
 20
-0.16439898372402537
  0
ENDBLK
  5
86
330
84
100
AcDbEntity
  8
0
100
AcDbBlockEnd
  0
ENDSEC
  0
SECTION
  2
ENTITIES
  0
LWPOLYLINE
  5
94
330
17
100
AcDbEntity
  8
BORDER
100
AcDbPolyline
 90
4
 70
1
 43
0.55
 10
6.0
 20
6.0
 10
834.0
 20
6.0
 10
834.0
 20
594.0
 10
6.0
 20
594.0
  0
LWPOLYLINE
  5
95
330
17
100
AcDbEntity
  8
BORDER
100
AcDbPolyline
 90
4
 70
1
 43
0.25
 10
22.0
 20
22.0
 10
818.0
 20
22.0
 10
818.0
 20
578.0
 10
22.0
 20
578.0
  0
TEXT
  5
96
330
17
100
AcDbEntity
  8
GRID
100
AcDbText
 10
61.8
 20
583.0
 30
0.0
 40
3.4
  1
0
  7
CJK
 72
1
 11
61.8
 21
583.0
 31
0.0
100
AcDbText
  0
TEXT
  5
97
330
17
100
AcDbEntity
  8
GRID
100
AcDbText
 10
61.8
 20
13.5
 30
0.0
 40
3.4
  1
0
  7
CJK
 72
1
 11
61.8
 21
13.5
 31
0.0
100
AcDbText
  0
LINE
  5
98
330
17
100
AcDbEntity
  8
GRID
100
AcDbLine
 10
22.0
 20
22.0
 30
0.0
 11
22.0
 21
18.5
 31
0.0
  0
LINE
  5
99
330
17
100
AcDbEntity
  8
GRID
100
AcDbLine
 10
22.0
 20
578.0
 30
0.0
 11
22.0
 21
581.5
 31
0.0
  0
TEXT
  5
9A
330
17
100
AcDbEntity
  8
GRID
100
AcDbText
 10
141.39999999999998
 20
583.0
 30
0.0
 40
3.4
  1
1
  7
CJK
 72
1
 11
141.39999999999998
 21
583.0
 31
0.0
100
AcDbText
  0
TEXT
  5
9B
330
17
100
AcDbEntity
  8
GRID
100
AcDbText
 10
141.39999999999998
 20
13.5
 30
0.0
 40
3.4
  1
1
  7
CJK
 72
1
 11
141.39999999999998
 21
13.5
 31
0.0
100
AcDbText
  0
LINE
  5
9C
330
17
100
AcDbEntity
  8
GRID
100
AcDbLine
 10
101.6
 20
22.0
 30
0.0
 11
101.6
 21
18.5
 31
0.0
  0
LINE
  5
9D
330
17
100
AcDbEntity
  8
GRID
100
AcDbLine
 10
101.6
 20
578.0
 30
0.0
 11
101.6
 21
581.5
 31
0.0
  0
TEXT
  5
9E
330
17
100
AcDbEntity
  8
GRID
100
AcDbText
 10
221.0
 20
583.0
 30
0.0
 40
3.4
  1
2
  7
CJK
 72
1
 11
221.0
 21
583.0
 31
0.0
100
AcDbText
  0
TEXT
  5
9F
330
17
100
AcDbEntity
  8
GRID
100
AcDbText
 10
221.0
 20
13.5
 30
0.0
 40
3.4
  1
2
  7
CJK
 72
1
 11
221.0
 21
13.5
 31
0.0
100
AcDbText
  0
LINE
  5
A0
330
17
100
AcDbEntity
  8
GRID
100
AcDbLine
 10
181.2
 20
22.0
 30
0.0
 11
181.2
 21
18.5
 31
0.0
  0
LINE
  5
A1
330
17
100
AcDbEntity
  8
GRID
100
AcDbLine
 10
181.2
 20
578.0
 30
0.0
 11
181.2
 21
581.5
 31
0.0
  0
TEXT
  5
A2
330
17
100
AcDbEntity
  8
GRID
100
AcDbText
 10
300.59999999999997
 20
583.0
 30
0.0
 40
3.4
  1
3
  7
CJK
 72
1
 11
300.59999999999997
 21
583.0
 31
0.0
100
AcDbText
  0
TEXT
  5
A3
330
17
100
AcDbEntity
  8
GRID
100
AcDbText
 10
300.59999999999997
 20
13.5
 30
0.0
 40
3.4
  1
3
  7
CJK
 72
1
 11
300.59999999999997
 21
13.5
 31
0.0
100
AcDbText
  0
LINE
  5
A4
330
17
100
AcDbEntity
  8
GRID
100
AcDbLine
 10
260.79999999999995
 20
22.0
 30
0.0
 11
260.79999999999995
 21
18.5
 31
0.0
  0
LINE
  5
A5
330
17
100
AcDbEntity
  8
GRID
100
AcDbLine
 10
260.79999999999995
 20
578.0
 30
0.0
 11
260.79999999999995
 21
581.5
 31
0.0
  0
TEXT
  5
A6
330
17
100
AcDbEntity
  8
GRID
100
AcDbText
 10
380.2
 20
583.0
 30
0.0
 40
3.4
  1
4
  7
CJK
 72
1
 11
380.2
 21
583.0
 31
0.0
100
AcDbText
  0
TEXT
  5
A7
330
17
100
AcDbEntity
  8
GRID
100
AcDbText
 10
380.2
 20
13.5
 30
0.0
 40
3.4
  1
4
  7
CJK
 72
1
 11
380.2
 21
13.5
 31
0.0
100
AcDbText
  0
LINE
  5
A8
330
17
100
AcDbEntity
  8
GRID
100
AcDbLine
 10
340.4
 20
22.0
 30
0.0
 11
340.4
 21
18.5
 31
0.0
  0
LINE
  5
A9
330
17
100
AcDbEntity
  8
GRID
100
AcDbLine
 10
340.4
 20
578.0
 30
0.0
 11
340.4
 21
581.5
 31
0.0
  0
TEXT
  5
AA
330
17
100
AcDbEntity
  8
GRID
100
AcDbText
 10
459.79999999999995
 20
583.0
 30
0.0
 40
3.4
  1
5
  7
CJK
 72
1
 11
459.79999999999995
 21
583.0
 31
0.0
100
AcDbText
  0
TEXT
  5
AB
330
17
100
AcDbEntity
  8
GRID
100
AcDbText
 10
459.79999999999995
 20
13.5
 30
0.0
 40
3.4
  1
5
  7
CJK
 72
1
 11
459.79999999999995
 21
13.5
 31
0.0
100
AcDbText
  0
LINE
  5
AC
330
17
100
AcDbEntity
  8
GRID
100
AcDbLine
 10
420.0
 20
22.0
 30
0.0
 11
420.0
 21
18.5
 31
0.0
  0
LINE
  5
AD
330
17
100
AcDbEntity
  8
GRID
100
AcDbLine
 10
420.0
 20
578.0
 30
0.0
 11
420.0
 21
581.5
 31
0.0
  0
TEXT
  5
AE
330
17
100
AcDbEntity
  8
GRID
100
AcDbText
 10
539.4
 20
583.0
 30
0.0
 40
3.4
  1
6
  7
CJK
 72
1
 11
539.4
 21
583.0
 31
0.0
100
AcDbText
  0
TEXT
  5
AF
330
17
100
AcDbEntity
  8
GRID
100
AcDbText
 10
539.4
 20
13.5
 30
0.0
 40
3.4
  1
6
  7
CJK
 72
1
 11
539.4
 21
13.5
 31
0.0
100
AcDbText
  0
LINE
  5
B0
330
17
100
AcDbEntity
  8
GRID
100
AcDbLine
 10
499.59999999999997
 20
22.0
 30
0.0
 11
499.59999999999997
 21
18.5
 31
0.0
  0
LINE
  5
B1
330
17
100
AcDbEntity
  8
GRID
100
AcDbLine
 10
499.59999999999997
 20
578.0
 30
0.0
 11
499.59999999999997
 21
581.5
 31
0.0
  0
TEXT
  5
B2
330
17
100
AcDbEntity
  8
GRID
100
AcDbText
 10
619.0
 20
583.0
 30
0.0
 40
3.4
  1
7
  7
CJK
 72
1
 11
619.0
 21
583.0
 31
0.0
100
AcDbText
  0
TEXT
  5
B3
330
17
100
AcDbEntity
  8
GRID
100
AcDbText
 10
619.0
 20
13.5
 30
0.0
 40
3.4
  1
7
  7
CJK
 72
1
 11
619.0
 21
13.5
 31
0.0
100
AcDbText
  0
LINE
  5
B4
330
17
100
AcDbEntity
  8
GRID
100
AcDbLine
 10
579.1999999999999
 20
22.0
 30
0.0
 11
579.1999999999999
 21
18.5
 31
0.0
  0
LINE
  5
B5
330
17
100
AcDbEntity
  8
GRID
100
AcDbLine
 10
579.1999999999999
 20
578.0
 30
0.0
 11
579.1999999999999
 21
581.5
 31
0.0
  0
TEXT
  5
B6
330
17
100
AcDbEntity
  8
GRID
100
AcDbText
 10
698.5999999999999
 20
583.0
 30
0.0
 40
3.4
  1
8
  7
CJK
 72
1
 11
698.5999999999999
 21
583.0
 31
0.0
100
AcDbText
  0
TEXT
  5
B7
330
17
100
AcDbEntity
  8
GRID
100
AcDbText
 10
698.5999999999999
 20
13.5
 30
0.0
 40
3.4
  1
8
  7
CJK
 72
1
 11
698.5999999999999
 21
13.5
 31
0.0
100
AcDbText
  0
LINE
  5
B8
330
17
100
AcDbEntity
  8
GRID
100
AcDbLine
 10
658.8
 20
22.0
 30
0.0
 11
658.8
 21
18.5
 31
0.0
  0
LINE
  5
B9
330
17
100
AcDbEntity
  8
GRID
100
AcDbLine
 10
658.8
 20
578.0
 30
0.0
 11
658.8
 21
581.5
 31
0.0
  0
TEXT
  5
BA
330
17
100
AcDbEntity
  8
GRID
100
AcDbText
 10
778.1999999999999
 20
583.0
 30
0.0
 40
3.4
  1
9
  7
CJK
 72
1
 11
778.1999999999999
 21
583.0
 31
0.0
100
AcDbText
  0
TEXT
  5
BB
330
17
100
AcDbEntity
  8
GRID
100
AcDbText
 10
778.1999999999999
 20
13.5
 30
0.0
 40
3.4
  1
9
  7
CJK
 72
1
 11
778.1999999999999
 21
13.5
 31
0.0
100
AcDbText
  0
LINE
  5
BC
330
17
100
AcDbEntity
  8
GRID
100
AcDbLine
 10
738.4
 20
22.0
 30
0.0
 11
738.4
 21
18.5
 31
0.0
  0
LINE
  5
BD
330
17
100
AcDbEntity
  8
GRID
100
AcDbLine
 10
738.4
 20
578.0
 30
0.0
 11
738.4
 21
581.5
 31
0.0
  0
LINE
  5
BE
330
17
100
AcDbEntity
  8
GRID
100
AcDbLine
 10
818.0
 20
22.0
 30
0.0
 11
818.0
 21
18.5
 31
0.0
  0
LINE
  5
BF
330
17
100
AcDbEntity
  8
GRID
100
AcDbLine
 10
818.0
 20
578.0
 30
0.0
 11
818.0
 21
581.5
 31
0.0
  0
TEXT
  5
C0
330
17
100
AcDbEntity
  8
GRID
100
AcDbText
 10
14.0
 20
531.6666666666666
 30
0.0
 40
3.4
  1
A
  7
CJK
 72
1
 11
14.0
 21
531.6666666666666
 31
0.0
100
AcDbText
  0
TEXT
  5
C1
330
17
100
AcDbEntity
  8
GRID
100
AcDbText
 10
826.0
 20
531.6666666666666
 30
0.0
 40
3.4
  1
A
  7
CJK
 72
1
 11
826.0
 21
531.6666666666666
 31
0.0
100
AcDbText
  0
LINE
  5
C2
330
17
100
AcDbEntity
  8
GRID
100
AcDbLine
 10
22.0
 20
578.0
 30
0.0
 11
18.5
 21
578.0
 31
0.0
  0
LINE
  5
C3
330
17
100
AcDbEntity
  8
GRID
100
AcDbLine
 10
818.0
 20
578.0
 30
0.0
 11
821.5
 21
578.0
 31
0.0
  0
TEXT
  5
C4
330
17
100
AcDbEntity
  8
GRID
100
AcDbText
 10
14.0
 20
439.0
 30
0.0
 40
3.4
  1
B
  7
CJK
 72
1
 11
14.0
 21
439.0
 31
0.0
100
AcDbText
  0
TEXT
  5
C5
330
17
100
AcDbEntity
  8
GRID
100
AcDbText
 10
826.0
 20
439.0
 30
0.0
 40
3.4
  1
B
  7
CJK
 72
1
 11
826.0
 21
439.0
 31
0.0
100
AcDbText
  0
LINE
  5
C6
330
17
100
AcDbEntity
  8
GRID
100
AcDbLine
 10
22.0
 20
485.3333333333333
 30
0.0
 11
18.5
 21
485.3333333333333
 31
0.0
  0
LINE
  5
C7
330
17
100
AcDbEntity
  8
GRID
100
AcDbLine
 10
818.0
 20
485.3333333333333
 30
0.0
 11
821.5
 21
485.3333333333333
 31
0.0
  0
TEXT
  5
C8
330
17
100
AcDbEntity
  8
GRID
100
AcDbText
 10
14.0
 20
346.3333333333333
 30
0.0
 40
3.4
  1
C
  7
CJK
 72
1
 11
14.0
 21
346.3333333333333
 31
0.0
100
AcDbText
  0
TEXT
  5
C9
330
17
100
AcDbEntity
  8
GRID
100
AcDbText
 10
826.0
 20
346.3333333333333
 30
0.0
 40
3.4
  1
C
  7
CJK
 72
1
 11
826.0
 21
346.3333333333333
 31
0.0
100
AcDbText
  0
LINE
  5
CA
330
17
100
AcDbEntity
  8
GRID
100
AcDbLine
 10
22.0
 20
392.66666666666663
 30
0.0
 11
18.5
 21
392.66666666666663
 31
0.0
  0
LINE
  5
CB
330
17
100
AcDbEntity
  8
GRID
100
AcDbLine
 10
818.0
 20
392.66666666666663
 30
0.0
 11
821.5
 21
392.66666666666663
 31
0.0
  0
TEXT
  5
CC
330
17
100
AcDbEntity
  8
GRID
100
AcDbText
 10
14.0
 20
253.66666666666663
 30
0.0
 40
3.4
  1
D
  7
CJK
 72
1
 11
14.0
 21
253.66666666666663
 31
0.0
100
AcDbText
  0
TEXT
  5
CD
330
17
100
AcDbEntity
  8
GRID
100
AcDbText
 10
826.0
 20
253.66666666666663
 30
0.0
 40
3.4
  1
D
  7
CJK
 72
1
 11
826.0
 21
253.66666666666663
 31
0.0
100
AcDbText
  0
LINE
  5
CE
330
17
100
AcDbEntity
  8
GRID
100
AcDbLine
 10
22.0
 20
300.0
 30
0.0
 11
18.5
 21
300.0
 31
0.0
  0
LINE
  5
CF
330
17
100
AcDbEntity
  8
GRID
100
AcDbLine
 10
818.0
 20
300.0
 30
0.0
 11
821.5
 21
300.0
 31
0.0
  0
TEXT
  5
D0
330
17
100
AcDbEntity
  8
GRID
100
AcDbText
 10
14.0
 20
161.0
 30
0.0
 40
3.4
  1
E
  7
CJK
 72
1
 11
14.0
 21
161.0
 31
0.0
100
AcDbText
  0
TEXT
  5
D1
330
17
100
AcDbEntity
  8
GRID
100
AcDbText
 10
826.0
 20
161.0
 30
0.0
 40
3.4
  1
E
  7
CJK
 72
1
 11
826.0
 21
161.0
 31
0.0
100
AcDbText
  0
LINE
  5
D2
330
17
100
AcDbEntity
  8
GRID
100
AcDbLine
 10
22.0
 20
207.33333333333331
 30
0.0
 11
18.5
 21
207.33333333333331
 31
0.0
  0
LINE
  5
D3
330
17
100
AcDbEntity
  8
GRID
100
AcDbLine
 10
818.0
 20
207.33333333333331
 30
0.0
 11
821.5
 21
207.33333333333331
 31
0.0
  0
TEXT
  5
D4
330
17
100
AcDbEntity
  8
GRID
100
AcDbText
 10
14.0
 20
68.33333333333331
 30
0.0
 40
3.4
  1
F
  7
CJK
 72
1
 11
14.0
 21
68.33333333333331
 31
0.0
100
AcDbText
  0
TEXT
  5
D5
330
17
100
AcDbEntity
  8
GRID
100
AcDbText
 10
826.0
 20
68.33333333333331
 30
0.0
 40
3.4
  1
F
  7
CJK
 72
1
 11
826.0
 21
68.33333333333331
 31
0.0
100
AcDbText
  0
LINE
  5
D6
330
17
100
AcDbEntity
  8
GRID
100
AcDbLine
 10
22.0
 20
114.66666666666663
 30
0.0
 11
18.5
 21
114.66666666666663
 31
0.0
  0
LINE
  5
D7
330
17
100
AcDbEntity
  8
GRID
100
AcDbLine
 10
818.0
 20
114.66666666666663
 30
0.0
 11
821.5
 21
114.66666666666663
 31
0.0
  0
LINE
  5
D8
330
17
100
AcDbEntity
  8
GRID
100
AcDbLine
 10
22.0
 20
22.0
 30
0.0
 11
18.5
 21
22.0
 31
0.0
  0
LINE
  5
D9
330
17
100
AcDbEntity
  8
GRID
100
AcDbLine
 10
818.0
 20
22.0
 30
0.0
 11
821.5
 21
22.0
 31
0.0
  0
TEXT
  5
DA
330
17
100
AcDbEntity
  8
TITLE
100
AcDbText
 10
24.0
 20
587.5
 30
0.0
 40
3.2
  1
SuperWORKS
  7
CJK
 11
24.0
 21
587.5
 31
0.0
100
AcDbText
  0
TEXT
  5
DB
330
17
100
AcDbEntity
  8
TITLE
100
AcDbText
 10
24.0
 20
582.8
 30
0.0
 40
2.6
  1
梁博软件
  7
CJK
 11
24.0
 21
582.8
 31
0.0
100
AcDbText
  0
LINE
  5
DC
330
17
100
AcDbEntity
  8
GRID
100
AcDbLine
 10
404.08
 20
117.0
 30
0.0
 11
404.08
 21
564.0
 31
0.0
  0
LINE
  5
DD
330
17
100
AcDbEntity
  8
WIRING
100
AcDbLine
 10
33.0
 20
547.0
 30
0.0
 11
33.0
 21
553.0
 31
0.0
  0
LINE
  5
DE
330
17
100
AcDbEntity
  8
WIRING
100
AcDbLine
 10
33.0
 20
550.0
 30
0.0
 11
73.0
 21
550.0
 31
0.0
  0
TEXT
  5
DF
330
17
100
AcDbEntity
  8
TEXT
100
AcDbText
 10
48.0
 20
554.5
 30
0.0
 40
2.3
  1
L1
  7
CJK
 72
1
 11
48.0
 21
554.5
 31
0.0
100
AcDbText
  0
LWPOLYLINE
  5
E0
330
17
100
AcDbEntity
  8
SYMBOLS
100
AcDbPolyline
 90
4
 70
1
 10
75.0
 20
547.0
 10
91.0
 20
547.0
 10
91.0
 20
553.0
 10
75.0
 20
553.0
  0
LINE
  5
E1
330
17
100
AcDbEntity
  8
SYMBOLS
100
AcDbLine
 10
75.0
 20
550.0
 30
0.0
 11
91.0
 21
550.0
 31
0.0
  0
TEXT
  5
E2
330
17
100
AcDbEntity
  8
TEXT
100
AcDbText
 10
72.0
 20
544.5
 30
0.0
 40
1.55
  1
1
  7
CJK
 72
1
 11
72.0
 21
544.5
 31
0.0
100
AcDbText
 73
2
  0
TEXT
  5
E3
330
17
100
AcDbEntity
  8
TEXT
100
AcDbText
 10
94.0
 20
544.5
 30
0.0
 40
1.55
  1
2
  7
CJK
 72
1
 11
94.0
 21
544.5
 31
0.0
100
AcDbText
 73
2
  0
TEXT
  5
E4
330
17
100
AcDbEntity
  8
TEXT
100
AcDbText
 10
83.0
 20
556.5
 30
0.0
 40
2.0
  1
FU1
  7
CJK
 72
1
 11
83.0
 21
556.5
 31
0.0
100
AcDbText
  0
LINE
  5
E5
330
17
100
AcDbEntity
  8
WIRING
100
AcDbLine
 10
91.0
 20
550.0
 30
0.0
 11
128.0
 21
550.0
 31
0.0
  0
TEXT
  5
E6
330
17
100
AcDbEntity
  8
TEXT
100
AcDbText
 10
105.0
 20
554.2
 30
0.0
 40
2.0
  1
A1
  7
CJK
 72
1
 11
105.0
 21
554.2
 31
0.0
100
AcDbText
  0
LINE
  5
E7
330
17
100
AcDbEntity
  8
WIRING
100
AcDbLine
 10
33.0
 20
533.0
 30
0.0
 11
33.0
 21
539.0
 31
0.0
  0
LINE
  5
E8
330
17
100
AcDbEntity
  8
WIRING
100
AcDbLine
 10
33.0
 20
536.0
 30
0.0
 11
73.0
 21
536.0
 31
0.0
  0
TEXT
  5
E9
330
17
100
AcDbEntity
  8
TEXT
100
AcDbText
 10
48.0
 20
540.5
 30
0.0
 40
2.3
  1
L2
  7
CJK
 72
1
 11
48.0
 21
540.5
 31
0.0
100
AcDbText
  0
LWPOLYLINE
  5
EA
330
17
100
AcDbEntity
  8
SYMBOLS
100
AcDbPolyline
 90
4
 70
1
 10
75.0
 20
533.0
 10
91.0
 20
533.0
 10
91.0
 20
539.0
 10
75.0
 20
539.0
  0
LINE
  5
EB
330
17
100
AcDbEntity
  8
SYMBOLS
100
AcDbLine
 10
75.0
 20
536.0
 30
0.0
 11
91.0
 21
536.0
 31
0.0
  0
TEXT
  5
EC
330
17
100
AcDbEntity
  8
TEXT
100
AcDbText
 10
72.0
 20
530.5
 30
0.0
 40
1.55
  1
1
  7
CJK
 72
1
 11
72.0
 21
530.5
 31
0.0
100
AcDbText
 73
2
  0
TEXT
  5
ED
330
17
100
AcDbEntity
  8
TEXT
100
AcDbText
 10
94.0
 20
530.5
 30
0.0
 40
1.55
  1
2
  7
CJK
 72
1
 11
94.0
 21
530.5
 31
0.0
100
AcDbText
 73
2
  0
TEXT
  5
EE
330
17
100
AcDbEntity
  8
TEXT
100
AcDbText
 10
83.0
 20
542.5
 30
0.0
 40
2.0
  1
FU2
  7
CJK
 72
1
 11
83.0
 21
542.5
 31
0.0
100
AcDbText
  0
LINE
  5
EF
330
17
100
AcDbEntity
  8
WIRING
100
AcDbLine
 10
91.0
 20
536.0
 30
0.0
 11
128.0
 21
536.0
 31
0.0
  0
TEXT
  5
F0
330
17
100
AcDbEntity
  8
TEXT
100
AcDbText
 10
105.0
 20
540.2
 30
0.0
 40
2.0
  1
B1
  7
CJK
 72
1
 11
105.0
 21
540.2
 31
0.0
100
AcDbText
  0
LINE
  5
F1
330
17
100
AcDbEntity
  8
WIRING
100
AcDbLine
 10
33.0
 20
519.0
 30
0.0
 11
33.0
 21
525.0
 31
0.0
  0
LINE
  5
F2
330
17
100
AcDbEntity
  8
WIRING
100
AcDbLine
 10
33.0
 20
522.0
 30
0.0
 11
73.0
 21
522.0
 31
0.0
  0
TEXT
  5
F3
330
17
100
AcDbEntity
  8
TEXT
100
AcDbText
 10
48.0
 20
526.5
 30
0.0
 40
2.3
  1
L3
  7
CJK
 72
1
 11
48.0
 21
526.5
 31
0.0
100
AcDbText
  0
LWPOLYLINE
  5
F4
330
17
100
AcDbEntity
  8
SYMBOLS
100
AcDbPolyline
 90
4
 70
1
 10
75.0
 20
519.0
 10
91.0
 20
519.0
 10
91.0
 20
525.0
 10
75.0
 20
525.0
  0
LINE
  5
F5
330
17
100
AcDbEntity
  8
SYMBOLS
100
AcDbLine
 10
75.0
 20
522.0
 30
0.0
 11
91.0
 21
522.0
 31
0.0
  0
TEXT
  5
F6
330
17
100
AcDbEntity
  8
TEXT
100
AcDbText
 10
72.0
 20
516.5
 30
0.0
 40
1.55
  1
1
  7
CJK
 72
1
 11
72.0
 21
516.5
 31
0.0
100
AcDbText
 73
2
  0
TEXT
  5
F7
330
17
100
AcDbEntity
  8
TEXT
100
AcDbText
 10
94.0
 20
516.5
 30
0.0
 40
1.55
  1
2
  7
CJK
 72
1
 11
94.0
 21
516.5
 31
0.0
100
AcDbText
 73
2
  0
TEXT
  5
F8
330
17
100
AcDbEntity
  8
TEXT
100
AcDbText
 10
83.0
 20
528.5
 30
0.0
 40
2.0
  1
FU3
  7
CJK
 72
1
 11
83.0
 21
528.5
 31
0.0
100
AcDbText
  0
LINE
  5
F9
330
17
100
AcDbEntity
  8
WIRING
100
AcDbLine
 10
91.0
 20
522.0
 30
0.0
 11
128.0
 21
522.0
 31
0.0
  0
TEXT
  5
FA
330
17
100
AcDbEntity
  8
TEXT
100
AcDbText
 10
105.0
 20
526.2
 30
0.0
 40
2.0
  1
C1
  7
CJK
 72
1
 11
105.0
 21
526.2
 31
0.0
100
AcDbText
  0
LWPOLYLINE
  5
FB
330
17
100
AcDbEntity
  8
DASHED
  6
DASHED
100
AcDbPolyline
 90
4
 70
1
 10
128.0
 20
514.0
 10
176.0
 20
514.0
 10
176.0
 20
558.0
 10
128.0
 20
558.0
  0
TEXT
  5
FC
330
17
100
AcDbEntity
  8
TEXT
100
AcDbText
 10
152.0
 20
561.5
 30
0.0
 40
2.8
  1
SA
  7
CJK
 72
1
 11
152.0
 21
561.5
 31
0.0
100
AcDbText
  0
CIRCLE
  5
FD
330
17
100
AcDbEntity
  8
SYMBOLS
100
AcDbCircle
 10
134.0
 20
550.0
 30
0.0
 40
2.2
  0
TEXT
  5
FE
330
17
100
AcDbEntity
  8
TEXT
100
AcDbText
 10
134.0
 20
550.0
 30
0.0
 40
1.7
  1
1
  7
CJK
 72
1
 11
134.0
 21
550.0
 31
0.0
100
AcDbText
 73
2
  0
CIRCLE
  5
FF
330
17
100
AcDbEntity
  8
SYMBOLS
100
AcDbCircle
 10
170.0
 20
550.0
 30
0.0
 40
2.2
  0
TEXT
  5
100
330
17
100
AcDbEntity
  8
TEXT
100
AcDbText
 10
170.0
 20
550.0
 30
0.0
 40
1.7
  1
2
  7
CJK
 72
1
 11
170.0
 21
550.0
 31
0.0
100
AcDbText
 73
2
  0
LINE
  5
101
330
17
100
AcDbEntity
  8
WIRING
100
AcDbLine
 10
136.2
 20
550.0
 30
0.0
 11
146.0
 21
550.0
 31
0.0
  0
CIRCLE
  5
102
330
17
100
AcDbEntity
  8
SYMBOLS
100
AcDbCircle
 10
134.0
 20
536.0
 30
0.0
 40
2.2
  0
TEXT
  5
103
330
17
100
AcDbEntity
  8
TEXT
100
AcDbText
 10
134.0
 20
536.0
 30
0.0
 40
1.7
  1
5
  7
CJK
 72
1
 11
134.0
 21
536.0
 31
0.0
100
AcDbText
 73
2
  0
CIRCLE
  5
104
330
17
100
AcDbEntity
  8
SYMBOLS
100
AcDbCircle
 10
170.0
 20
536.0
 30
0.0
 40
2.2
  0
TEXT
  5
105
330
17
100
AcDbEntity
  8
TEXT
100
AcDbText
 10
170.0
 20
536.0
 30
0.0
 40
1.7
  1
6
  7
CJK
 72
1
 11
170.0
 21
536.0
 31
0.0
100
AcDbText
 73
2
  0
LINE
  5
106
330
17
100
AcDbEntity
  8
WIRING
100
AcDbLine
 10
136.2
 20
536.0
 30
0.0
 11
146.0
 21
536.0
 31
0.0
  0
CIRCLE
  5
107
330
17
100
AcDbEntity
  8
SYMBOLS
100
AcDbCircle
 10
134.0
 20
522.0
 30
0.0
 40
2.2
  0
TEXT
  5
108
330
17
100
AcDbEntity
  8
TEXT
100
AcDbText
 10
134.0
 20
522.0
 30
0.0
 40
1.7
  1
9
  7
CJK
 72
1
 11
134.0
 21
522.0
 31
0.0
100
AcDbText
 73
2
  0
CIRCLE
  5
109
330
17
100
AcDbEntity
  8
SYMBOLS
100
AcDbCircle
 10
170.0
 20
522.0
 30
0.0
 40
2.2
  0
TEXT
  5
10A
330
17
100
AcDbEntity
  8
TEXT
100
AcDbText
 10
170.0
 20
522.0
 30
0.0
 40
1.7
  1
12
  7
CJK
 72
1
 11
170.0
 21
522.0
 31
0.0
100
AcDbText
 73
2
  0
LINE
  5
10B
330
17
100
AcDbEntity
  8
WIRING
100
AcDbLine
 10
136.2
 20
522.0
 30
0.0
 11
146.0
 21
522.0
 31
0.0
  0
LINE
  5
10C
330
17
100
AcDbEntity
  8
WIRING
100
AcDbLine
 10
172.2
 20
550.0
 30
0.0
 11
186.0
 21
550.0
 31
0.0
  0
LINE
  5
10D
330
17
100
AcDbEntity
  8
WIRING
100
AcDbLine
 10
186.0
 20
550.0
 30
0.0
 11
186.0
 21
544.0
 31
0.0
  0
LINE
  5
10E
330
17
100
AcDbEntity
  8
WIRING
100
AcDbLine
 10
186.0
 20
544.0
 30
0.0
 11
218.0
 21
544.0
 31
0.0
  0
LINE
  5
10F
330
17
100
AcDbEntity
  8
WIRING
100
AcDbLine
 10
218.0
 20
544.0
 30
0.0
 11
218.0
 21
543.5
 31
0.0
  0
TEXT
  5
110
330
17
100
AcDbEntity
  8
TEXT
100
AcDbText
 10
194.0
 20
554.0
 30
0.0
 40
2.0
  1
V1
  7
CJK
 11
194.0
 21
554.0
 31
0.0
100
AcDbText
  0
LINE
  5
111
330
17
100
AcDbEntity
  8
WIRING
100
AcDbLine
 10
172.2
 20
522.0
 30
0.0
 11
194.0
 21
522.0
 31
0.0
  0
LINE
  5
112
330
17
100
AcDbEntity
  8
WIRING
100
AcDbLine
 10
194.0
 20
522.0
 30
0.0
 11
194.0
 21
528.0
 31
0.0
  0
LINE
  5
113
330
17
100
AcDbEntity
  8
WIRING
100
AcDbLine
 10
194.0
 20
528.0
 30
0.0
 11
218.0
 21
528.0
 31
0.0
  0
LINE
  5
114
330
17
100
AcDbEntity
  8
WIRING
100
AcDbLine
 10
218.0
 20
528.0
 30
0.0
 11
218.0
 21
528.5
 31
0.0
  0
TEXT
  5
115
330
17
100
AcDbEntity
  8
TEXT
100
AcDbText
 10
198.0
 20
517.0
 30
0.0
 40
2.0
  1
V2
  7
CJK
 11
198.0
 21
517.0
 31
0.0
100
AcDbText
  0
CIRCLE
  5
116
330
17
100
AcDbEntity
  8
SYMBOLS
100
AcDbCircle
 10
218.0
 20
536.0
 30
0.0
 40
8.5
  0
TEXT
  5
117
330
17
100
AcDbEntity
  8
TEXT
100
AcDbText
 10
218.0
 20
536.0
 30
0.0
 40
3.5
  1
V
  7
CJK
 72
1
 11
218.0
 21
536.0
 31
0.0
100
AcDbText
 73
2
  0
TEXT
  5
118
330
17
100
AcDbEntity
  8
TEXT
100
AcDbText
 10
230.0
 20
542.0
 30
0.0
 40
2.2
  1
PV
  7
CJK
 11
230.0
 21
542.0
 31
0.0
100
AcDbText
  0
TEXT
  5
119
330
17
100
AcDbEntity
  8
TEXT
100
AcDbText
 10
214.5
 20
546.5
 30
0.0
 40
1.5
  1
1
  7
CJK
 72
1
 11
214.5
 21
546.5
 31
0.0
100
AcDbText
 73
2
  0
TEXT
  5
11A
330
17
100
AcDbEntity
  8
TEXT
100
AcDbText
 10
214.5
 20
525.5
 30
0.0
 40
1.5
  1
2
  7
CJK
 72
1
 11
214.5
 21
525.5
 31
0.0
100
AcDbText
 73
2
  0
LINE
  5
11B
330
17
100
AcDbEntity
  8
SYMBOLS
100
AcDbLine
 10
214.0
 20
535.0
 30
0.0
 11
223.0
 21
539.0
 31
0.0
  0
LWPOLYLINE
  5
11C
330
17
100
AcDbEntity
  8
SYMBOLS
100
AcDbPolyline
 90
4
 70
1
 10
236.0
 20
531.5
 10
268.0
 20
531.5
 10
268.0
 20
540.5
 10
236.0
 20
540.5
  0
TEXT
  5
11D
330
17
100
AcDbEntity
  8
TEXT
100
AcDbText
 10
252.0
 20
536.0
 30
0.0
 40
2.2
  1
电压测量回路
  7
CJK
 72
1
 11
252.0
 21
536.0
 31
0.0
100
AcDbText
 73
2
  0
LINE
  5
11E
330
17
100
AcDbEntity
  8
WIRING
100
AcDbLine
 10
183.0
 20
502.0
 30
0.0
 11
183.0
 21
454.0
 31
0.0
  0
TEXT
  5
11F
330
17
100
AcDbEntity
  8
TEXT
100
AcDbText
 10
183.0
 20
506.0
 30
0.0
 40
2.4
  1
N
  7
CJK
 72
1
 11
183.0
 21
506.0
 31
0.0
100
AcDbText
  0
CIRCLE
  5
120
330
17
100
AcDbEntity
  8
SYMBOLS
100
AcDbCircle
 10
183.0
 20
502.0
 30
0.0
 40
1.5
  0
LINE
  5
121
330
17
100
AcDbEntity
  8
WIRING
100
AcDbLine
 10
48.0
 20
492.0
 30
0.0
 11
118.0
 21
492.0
 31
0.0
  0
TEXT
  5
122
330
17
100
AcDbEntity
  8
TEXT
100
AcDbText
 10
63.0
 20
495.8
 30
0.0
 40
1.9
  1
A1
  7
CJK
 72
1
 11
63.0
 21
495.8
 31
0.0
100
AcDbText
  0
CIRCLE
  5
123
330
17
100
AcDbEntity
  8
SYMBOLS
100
AcDbCircle
 10
123.0
 20
492.0
 30
0.0
 40
4.0
  0
LINE
  5
124
330
17
100
AcDbEntity
  8
SYMBOLS
100
AcDbLine
 10
120.4
 20
489.4
 30
0.0
 11
125.6
 21
494.6
 31
0.0
  0
LINE
  5
125
330
17
100
AcDbEntity
  8
SYMBOLS
100
AcDbLine
 10
120.4
 20
494.6
 30
0.0
 11
125.6
 21
489.4
 31
0.0
  0
TEXT
  5
126
330
17
100
AcDbEntity
  8
TEXT
100
AcDbText
 10
123.0
 20
498.8
 30
0.0
 40
1.9
  1
HY1
  7
CJK
 72
1
 11
123.0
 21
498.8
 31
0.0
100
AcDbText
  0
LINE
  5
127
330
17
100
AcDbEntity
  8
WIRING
100
AcDbLine
 10
128.0
 20
492.0
 30
0.0
 11
183.0
 21
492.0
 31
0.0
  0
CIRCLE
  5
128
330
17
100
AcDbEntity
  8
SYMBOLS
100
AcDbCircle
 10
183.0
 20
492.0
 30
0.0
 40
0.85
  0
LWPOLYLINE
  5
12A
330
17
100
AcDbEntity
  8
SYMBOLS
100
AcDbPolyline
 90
12
 70
1
 43
1.36
 10
183.85
 20
492.0
 10
183.73612159321678
 20
492.425
 10
183.425
 20
492.73612159321675
 10
183.0
 20
492.85
 10
182.575
 20
492.73612159321675
 10
182.26387840678322
 20
492.425
 10
182.15
 20
492.0
 10
182.26387840678322
 20
491.575
 10
182.575
 20
491.26387840678325
 10
183.0
 20
491.15
 10
183.425
 20
491.26387840678325
 10
183.73612159321678
 20
491.575
  0
LWPOLYLINE
  5
12B
330
17
100
AcDbEntity
  8
SYMBOLS
100
AcDbPolyline
 90
4
 70
1
 10
193.0
 20
488.4
 10
227.0
 20
488.4
 10
227.0
 20
495.59999999999997
 10
193.0
 20
495.59999999999997
  0
TEXT
  5
12C
330
17
100
AcDbEntity
  8
TEXT
100
AcDbText
 10
210.0
 20
492.0
 30
0.0
 40
2.0
  1
A相电源指示
  7
CJK
 72
1
 11
210.0
 21
492.0
 31
0.0
100
AcDbText
 73
2
  0
LINE
  5
12D
330
17
100
AcDbEntity
  8
WIRING
100
AcDbLine
 10
48.0
 20
476.0
 30
0.0
 11
118.0
 21
476.0
 31
0.0
  0
TEXT
  5
12E
330
17
100
AcDbEntity
  8
TEXT
100
AcDbText
 10
63.0
 20
479.8
 30
0.0
 40
1.9
  1
B1
  7
CJK
 72
1
 11
63.0
 21
479.8
 31
0.0
100
AcDbText
  0
CIRCLE
  5
12F
330
17
100
AcDbEntity
  8
SYMBOLS
100
AcDbCircle
 10
123.0
 20
476.0
 30
0.0
 40
4.0
  0
LINE
  5
130
330
17
100
AcDbEntity
  8
SYMBOLS
100
AcDbLine
 10
120.4
 20
473.4
 30
0.0
 11
125.6
 21
478.6
 31
0.0
  0
LINE
  5
131
330
17
100
AcDbEntity
  8
SYMBOLS
100
AcDbLine
 10
120.4
 20
478.6
 30
0.0
 11
125.6
 21
473.4
 31
0.0
  0
TEXT
  5
132
330
17
100
AcDbEntity
  8
TEXT
100
AcDbText
 10
123.0
 20
482.8
 30
0.0
 40
1.9
  1
HG1
  7
CJK
 72
1
 11
123.0
 21
482.8
 31
0.0
100
AcDbText
  0
LINE
  5
133
330
17
100
AcDbEntity
  8
WIRING
100
AcDbLine
 10
128.0
 20
476.0
 30
0.0
 11
183.0
 21
476.0
 31
0.0
  0
CIRCLE
  5
134
330
17
100
AcDbEntity
  8
SYMBOLS
100
AcDbCircle
 10
183.0
 20
476.0
 30
0.0
 40
0.85
  0
LWPOLYLINE
  5
136
330
17
100
AcDbEntity
  8
SYMBOLS
100
AcDbPolyline
 90
12
 70
1
 43
1.36
 10
183.85
 20
476.0
 10
183.73612159321678
 20
476.425
 10
183.425
 20
476.73612159321675
 10
183.0
 20
476.85
 10
182.575
 20
476.73612159321675
 10
182.26387840678322
 20
476.425
 10
182.15
 20
476.0
 10
182.26387840678322
 20
475.575
 10
182.575
 20
475.26387840678325
 10
183.0
 20
475.15
 10
183.425
 20
475.26387840678325
 10
183.73612159321678
 20
475.575
  0
LWPOLYLINE
  5
137
330
17
100
AcDbEntity
  8
SYMBOLS
100
AcDbPolyline
 90
4
 70
1
 10
193.0
 20
472.4
 10
227.0
 20
472.4
 10
227.0
 20
479.59999999999997
 10
193.0
 20
479.59999999999997
  0
TEXT
  5
138
330
17
100
AcDbEntity
  8
TEXT
100
AcDbText
 10
210.0
 20
476.0
 30
0.0
 40
2.0
  1
B相电源指示
  7
CJK
 72
1
 11
210.0
 21
476.0
 31
0.0
100
AcDbText
 73
2
  0
LINE
  5
139
330
17
100
AcDbEntity
  8
WIRING
100
AcDbLine
 10
48.0
 20
460.0
 30
0.0
 11
118.0
 21
460.0
 31
0.0
  0
TEXT
  5
13A
330
17
100
AcDbEntity
  8
TEXT
100
AcDbText
 10
63.0
 20
463.8
 30
0.0
 40
1.9
  1
C1
  7
CJK
 72
1
 11
63.0
 21
463.8
 31
0.0
100
AcDbText
  0
CIRCLE
  5
13B
330
17
100
AcDbEntity
  8
SYMBOLS
100
AcDbCircle
 10
123.0
 20
460.0
 30
0.0
 40
4.0
  0
LINE
  5
13C
330
17
100
AcDbEntity
  8
SYMBOLS
100
AcDbLine
 10
120.4
 20
457.4
 30
0.0
 11
125.6
 21
462.6
 31
0.0
  0
LINE
  5
13D
330
17
100
AcDbEntity
  8
SYMBOLS
100
AcDbLine
 10
120.4
 20
462.6
 30
0.0
 11
125.6
 21
457.4
 31
0.0
  0
TEXT
  5
13E
330
17
100
AcDbEntity
  8
TEXT
100
AcDbText
 10
123.0
 20
466.8
 30
0.0
 40
1.9
  1
HR1
  7
CJK
 72
1
 11
123.0
 21
466.8
 31
0.0
100
AcDbText
  0
LINE
  5
13F
330
17
100
AcDbEntity
  8
WIRING
100
AcDbLine
 10
128.0
 20
460.0
 30
0.0
 11
183.0
 21
460.0
 31
0.0
  0
CIRCLE
  5
140
330
17
100
AcDbEntity
  8
SYMBOLS
100
AcDbCircle
 10
183.0
 20
460.0
 30
0.0
 40
0.85
  0
LWPOLYLINE
  5
142
330
17
100
AcDbEntity
  8
SYMBOLS
100
AcDbPolyline
 90
12
 70
1
 43
1.36
 10
183.85
 20
460.0
 10
183.73612159321678
 20
460.425
 10
183.425
 20
460.73612159321675
 10
183.0
 20
460.85
 10
182.575
 20
460.73612159321675
 10
182.26387840678322
 20
460.425
 10
182.15
 20
460.0
 10
182.26387840678322
 20
459.575
 10
182.575
 20
459.26387840678325
 10
183.0
 20
459.15
 10
183.425
 20
459.26387840678325
 10
183.73612159321678
 20
459.575
  0
LWPOLYLINE
  5
143
330
17
100
AcDbEntity
  8
SYMBOLS
100
AcDbPolyline
 90
4
 70
1
 10
193.0
 20
456.4
 10
227.0
 20
456.4
 10
227.0
 20
463.59999999999997
 10
193.0
 20
463.59999999999997
  0
TEXT
  5
144
330
17
100
AcDbEntity
  8
TEXT
100
AcDbText
 10
210.0
 20
460.0
 30
0.0
 40
2.0
  1
C相电源指示
  7
CJK
 72
1
 11
210.0
 21
460.0
 31
0.0
100
AcDbText
 73
2
  0
LWPOLYLINE
  5
145
330
17
100
AcDbEntity
  8
DASHED
  6
DASHED
100
AcDbPolyline
 90
4
 70
1
 10
98.0
 20
336.0
 10
173.0
 20
336.0
 10
173.0
 20
446.0
 10
98.0
 20
446.0
  0
TEXT
  5
146
330
17
100
AcDbEntity
  8
TEXT
100
AcDbText
 10
135.5
 20
449.5
 30
0.0
 40
2.8
  1
PJ
  7
CJK
 72
1
 11
135.5
 21
449.5
 31
0.0
100
AcDbText
  0
LINE
  5
147
330
17
100
AcDbEntity
  8
WIRING
100
AcDbLine
 10
40.0
 20
436.0
 30
0.0
 11
98.0
 21
436.0
 31
0.0
  0
TEXT
  5
148
330
17
100
AcDbEntity
  8
TEXT
100
AcDbText
 10
50.0
 20
439.6
 30
0.0
 40
1.9
  1
L1
  7
CJK
 72
1
 11
50.0
 21
439.6
 31
0.0
100
AcDbText
  0
CIRCLE
  5
149
330
17
100
AcDbEntity
  8
SYMBOLS
100
AcDbCircle
 10
108.0
 20
436.0
 30
0.0
 40
3.2
  0
TEXT
  5
14A
330
17
100
AcDbEntity
  8
TEXT
100
AcDbText
 10
108.0
 20
436.0
 30
0.0
 40
1.8
  1
2
  7
CJK
 72
1
 11
108.0
 21
436.0
 31
0.0
100
AcDbText
 73
2
  0
LINE
  5
14B
330
17
100
AcDbEntity
  8
WIRING
100
AcDbLine
 10
111.2
 20
436.0
 30
0.0
 11
126.0
 21
436.0
 31
0.0
  0
LINE
  5
14C
330
17
100
AcDbEntity
  8
WIRING
100
AcDbLine
 10
40.0
 20
422.0
 30
0.0
 11
98.0
 21
422.0
 31
0.0
  0
TEXT
  5
14D
330
17
100
AcDbEntity
  8
TEXT
100
AcDbText
 10
50.0
 20
425.6
 30
0.0
 40
1.9
  1
L2
  7
CJK
 72
1
 11
50.0
 21
425.6
 31
0.0
100
AcDbText
  0
CIRCLE
  5
14E
330
17
100
AcDbEntity
  8
SYMBOLS
100
AcDbCircle
 10
108.0
 20
422.0
 30
0.0
 40
3.2
  0
TEXT
  5
14F
330
17
100
AcDbEntity
  8
TEXT
100
AcDbText
 10
108.0
 20
422.0
 30
0.0
 40
1.8
  1
5
  7
CJK
 72
1
 11
108.0
 21
422.0
 31
0.0
100
AcDbText
 73
2
  0
LINE
  5
150
330
17
100
AcDbEntity
  8
WIRING
100
AcDbLine
 10
111.2
 20
422.0
 30
0.0
 11
126.0
 21
422.0
 31
0.0
  0
LINE
  5
151
330
17
100
AcDbEntity
  8
WIRING
100
AcDbLine
 10
40.0
 20
408.0
 30
0.0
 11
98.0
 21
408.0
 31
0.0
  0
TEXT
  5
152
330
17
100
AcDbEntity
  8
TEXT
100
AcDbText
 10
50.0
 20
411.6
 30
0.0
 40
1.9
  1
L3
  7
CJK
 72
1
 11
50.0
 21
411.6
 31
0.0
100
AcDbText
  0
CIRCLE
  5
153
330
17
100
AcDbEntity
  8
SYMBOLS
100
AcDbCircle
 10
108.0
 20
408.0
 30
0.0
 40
3.2
  0
TEXT
  5
154
330
17
100
AcDbEntity
  8
TEXT
100
AcDbText
 10
108.0
 20
408.0
 30
0.0
 40
1.8
  1
8
  7
CJK
 72
1
 11
108.0
 21
408.0
 31
0.0
100
AcDbText
 73
2
  0
LINE
  5
155
330
17
100
AcDbEntity
  8
WIRING
100
AcDbLine
 10
111.2
 20
408.0
 30
0.0
 11
126.0
 21
408.0
 31
0.0
  0
LINE
  5
156
330
17
100
AcDbEntity
  8
WIRING
100
AcDbLine
 10
40.0
 20
394.0
 30
0.0
 11
98.0
 21
394.0
 31
0.0
  0
TEXT
  5
157
330
17
100
AcDbEntity
  8
TEXT
100
AcDbText
 10
50.0
 20
397.6
 30
0.0
 40
1.9
  1
N
  7
CJK
 72
1
 11
50.0
 21
397.6
 31
0.0
100
AcDbText
  0
CIRCLE
  5
158
330
17
100
AcDbEntity
  8
SYMBOLS
100
AcDbCircle
 10
108.0
 20
394.0
 30
0.0
 40
3.2
  0
TEXT
  5
159
330
17
100
AcDbEntity
  8
TEXT
100
AcDbText
 10
108.0
 20
394.0
 30
0.0
 40
1.8
  1
10
  7
CJK
 72
1
 11
108.0
 21
394.0
 31
0.0
100
AcDbText
 73
2
  0
LINE
  5
15A
330
17
100
AcDbEntity
  8
WIRING
100
AcDbLine
 10
111.2
 20
394.0
 30
0.0
 11
126.0
 21
394.0
 31
0.0
  0
LWPOLYLINE
  5
15B
330
17
100
AcDbEntity
  8
SYMBOLS
100
AcDbPolyline
 90
4
 70
1
 10
181.0
 20
432.75
 10
203.0
 20
432.75
 10
203.0
 20
439.25
 10
181.0
 20
439.25
  0
TEXT
  5
15C
330
17
100
AcDbEntity
  8
TEXT
100
AcDbText
 10
192.0
 20
436.0
 30
0.0
 40
1.9
  1
A电压
  7
CJK
 72
1
 11
192.0
 21
436.0
 31
0.0
100
AcDbText
 73
2
  0
LWPOLYLINE
  5
15D
330
17
100
AcDbEntity
  8
SYMBOLS
100
AcDbPolyline
 90
4
 70
1
 10
181.0
 20
418.75
 10
203.0
 20
418.75
 10
203.0
 20
425.25
 10
181.0
 20
425.25
  0
TEXT
  5
15E
330
17
100
AcDbEntity
  8
TEXT
100
AcDbText
 10
192.0
 20
422.0
 30
0.0
 40
1.9
  1
B电压
  7
CJK
 72
1
 11
192.0
 21
422.0
 31
0.0
100
AcDbText
 73
2
  0
LWPOLYLINE
  5
15F
330
17
100
AcDbEntity
  8
SYMBOLS
100
AcDbPolyline
 90
4
 70
1
 10
181.0
 20
404.75
 10
203.0
 20
404.75
 10
203.0
 20
411.25
 10
181.0
 20
411.25
  0
TEXT
  5
160
330
17
100
AcDbEntity
  8
TEXT
100
AcDbText
 10
192.0
 20
408.0
 30
0.0
 40
1.9
  1
C电压
  7
CJK
 72
1
 11
192.0
 21
408.0
 31
0.0
100
AcDbText
 73
2
  0
CIRCLE
  5
161
330
17
100
AcDbEntity
  8
SYMBOLS
100
AcDbCircle
 10
63.0
 20
381.98
 30
0.0
 40
1.9800000000000002
  0
CIRCLE
  5
162
330
17
100
AcDbEntity
  8
SYMBOLS
100
AcDbCircle
 10
63.0
 20
378.02
 30
0.0
 40
1.9800000000000002
  0
TEXT
  5
163
330
17
100
AcDbEntity
  8
TEXT
100
AcDbText
 10
63.0
 20
388.5
 30
0.0
 40
1.85
  1
TAa
  7
CJK
 72
1
 11
63.0
 21
388.5
 31
0.0
100
AcDbText
  0
TEXT
  5
164
330
17
100
AcDbEntity
  8
TEXT
100
AcDbText
 10
53.0
 20
382.5
 30
0.0
 40
1.4
  1
k1
  7
CJK
 72
2
 11
53.0
 21
382.5
 31
0.0
100
AcDbText
  0
TEXT
  5
165
330
17
100
AcDbEntity
  8
TEXT
100
AcDbText
 10
53.0
 20
377.5
 30
0.0
 40
1.4
  1
k2
  7
CJK
 72
2
 11
53.0
 21
377.5
 31
0.0
100
AcDbText
  0
LINE
  5
166
330
17
100
AcDbEntity
  8
WIRING
100
AcDbLine
 10
67.0
 20
380.0
 30
0.0
 11
98.0
 21
380.0
 31
0.0
  0
CIRCLE
  5
167
330
17
100
AcDbEntity
  8
SYMBOLS
100
AcDbCircle
 10
108.0
 20
380.0
 30
0.0
 40
3.0
  0
TEXT
  5
168
330
17
100
AcDbEntity
  8
TEXT
100
AcDbText
 10
108.0
 20
380.0
 30
0.0
 40
1.7
  1
1
  7
CJK
 72
1
 11
108.0
 21
380.0
 31
0.0
100
AcDbText
 73
2
  0
LINE
  5
169
330
17
100
AcDbEntity
  8
WIRING
100
AcDbLine
 10
111.0
 20
380.0
 30
0.0
 11
160.0
 21
380.0
 31
0.0
  0
CIRCLE
  5
16A
330
17
100
AcDbEntity
  8
SYMBOLS
100
AcDbCircle
 10
163.0
 20
380.0
 30
0.0
 40
3.0
  0
TEXT
  5
16B
330
17
100
AcDbEntity
  8
TEXT
100
AcDbText
 10
163.0
 20
380.0
 30
0.0
 40
1.7
  1
3
  7
CJK
 72
1
 11
163.0
 21
380.0
 31
0.0
100
AcDbText
 73
2
  0
LINE
  5
16C
330
17
100
AcDbEntity
  8
WIRING
100
AcDbLine
 10
166.0
 20
380.0
 30
0.0
 11
201.5
 21
380.0
 31
0.0
  0
CIRCLE
  5
16D
330
17
100
AcDbEntity
  8
SYMBOLS
100
AcDbCircle
 10
208.0
 20
380.0
 30
0.0
 40
6.0
  0
TEXT
  5
16E
330
17
100
AcDbEntity
  8
TEXT
100
AcDbText
 10
208.0
 20
380.0
 30
0.0
 40
2.8
  1
A
  7
CJK
 72
1
 11
208.0
 21
380.0
 31
0.0
100
AcDbText
 73
2
  0
TEXT
  5
16F
330
17
100
AcDbEntity
  8
TEXT
100
AcDbText
 10
208.0
 20
389.0
 30
0.0
 40
1.85
  1
PAa
  7
CJK
 72
1
 11
208.0
 21
389.0
 31
0.0
100
AcDbText
  0
LWPOLYLINE
  5
170
330
17
100
AcDbEntity
  8
SYMBOLS
100
AcDbPolyline
 90
4
 70
1
 10
220.0
 20
376.75
 10
242.0
 20
376.75
 10
242.0
 20
383.25
 10
220.0
 20
383.25
  0
TEXT
  5
171
330
17
100
AcDbEntity
  8
TEXT
100
AcDbText
 10
231.0
 20
380.0
 30
0.0
 40
1.9
  1
A电流
  7
CJK
 72
1
 11
231.0
 21
380.0
 31
0.0
100
AcDbText
 73
2
  0
LINE
  5
172
330
17
100
AcDbEntity
  8
WIRING
100
AcDbLine
 10
208.0
 20
374.0
 30
0.0
 11
208.0
 21
370.0
 31
0.0
  0
CIRCLE
  5
173
330
17
100
AcDbEntity
  8
SYMBOLS
100
AcDbCircle
 10
63.0
 20
365.98
 30
0.0
 40
1.9800000000000002
  0
CIRCLE
  5
174
330
17
100
AcDbEntity
  8
SYMBOLS
100
AcDbCircle
 10
63.0
 20
362.02
 30
0.0
 40
1.9800000000000002
  0
TEXT
  5
175
330
17
100
AcDbEntity
  8
TEXT
100
AcDbText
 10
63.0
 20
372.5
 30
0.0
 40
1.85
  1
TAb
  7
CJK
 72
1
 11
63.0
 21
372.5
 31
0.0
100
AcDbText
  0
TEXT
  5
176
330
17
100
AcDbEntity
  8
TEXT
100
AcDbText
 10
53.0
 20
366.5
 30
0.0
 40
1.4
  1
k1
  7
CJK
 72
2
 11
53.0
 21
366.5
 31
0.0
100
AcDbText
  0
TEXT
  5
177
330
17
100
AcDbEntity
  8
TEXT
100
AcDbText
 10
53.0
 20
361.5
 30
0.0
 40
1.4
  1
k2
  7
CJK
 72
2
 11
53.0
 21
361.5
 31
0.0
100
AcDbText
  0
LINE
  5
178
330
17
100
AcDbEntity
  8
WIRING
100
AcDbLine
 10
67.0
 20
364.0
 30
0.0
 11
98.0
 21
364.0
 31
0.0
  0
CIRCLE
  5
179
330
17
100
AcDbEntity
  8
SYMBOLS
100
AcDbCircle
 10
108.0
 20
364.0
 30
0.0
 40
3.0
  0
TEXT
  5
17A
330
17
100
AcDbEntity
  8
TEXT
100
AcDbText
 10
108.0
 20
364.0
 30
0.0
 40
1.7
  1
4
  7
CJK
 72
1
 11
108.0
 21
364.0
 31
0.0
100
AcDbText
 73
2
  0
LINE
  5
17B
330
17
100
AcDbEntity
  8
WIRING
100
AcDbLine
 10
111.0
 20
364.0
 30
0.0
 11
160.0
 21
364.0
 31
0.0
  0
CIRCLE
  5
17C
330
17
100
AcDbEntity
  8
SYMBOLS
100
AcDbCircle
 10
163.0
 20
364.0
 30
0.0
 40
3.0
  0
TEXT
  5
17D
330
17
100
AcDbEntity
  8
TEXT
100
AcDbText
 10
163.0
 20
364.0
 30
0.0
 40
1.7
  1
6
  7
CJK
 72
1
 11
163.0
 21
364.0
 31
0.0
100
AcDbText
 73
2
  0
LINE
  5
17E
330
17
100
AcDbEntity
  8
WIRING
100
AcDbLine
 10
166.0
 20
364.0
 30
0.0
 11
201.5
 21
364.0
 31
0.0
  0
CIRCLE
  5
17F
330
17
100
AcDbEntity
  8
SYMBOLS
100
AcDbCircle
 10
208.0
 20
364.0
 30
0.0
 40
6.0
  0
TEXT
  5
180
330
17
100
AcDbEntity
  8
TEXT
100
AcDbText
 10
208.0
 20
364.0
 30
0.0
 40
2.8
  1
A
  7
CJK
 72
1
 11
208.0
 21
364.0
 31
0.0
100
AcDbText
 73
2
  0
TEXT
  5
181
330
17
100
AcDbEntity
  8
TEXT
100
AcDbText
 10
208.0
 20
373.0
 30
0.0
 40
1.85
  1
PAb
  7
CJK
 72
1
 11
208.0
 21
373.0
 31
0.0
100
AcDbText
  0
LWPOLYLINE
  5
182
330
17
100
AcDbEntity
  8
SYMBOLS
100
AcDbPolyline
 90
4
 70
1
 10
220.0
 20
360.75
 10
242.0
 20
360.75
 10
242.0
 20
367.25
 10
220.0
 20
367.25
  0
TEXT
  5
183
330
17
100
AcDbEntity
  8
TEXT
100
AcDbText
 10
231.0
 20
364.0
 30
0.0
 40
1.9
  1
B电流
  7
CJK
 72
1
 11
231.0
 21
364.0
 31
0.0
100
AcDbText
 73
2
  0
LINE
  5
184
330
17
100
AcDbEntity
  8
WIRING
100
AcDbLine
 10
208.0
 20
358.0
 30
0.0
 11
208.0
 21
354.0
 31
0.0
  0
CIRCLE
  5
185
330
17
100
AcDbEntity
  8
SYMBOLS
100
AcDbCircle
 10
63.0
 20
349.98
 30
0.0
 40
1.9800000000000002
  0
CIRCLE
  5
186
330
17
100
AcDbEntity
  8
SYMBOLS
100
AcDbCircle
 10
63.0
 20
346.02
 30
0.0
 40
1.9800000000000002
  0
TEXT
  5
187
330
17
100
AcDbEntity
  8
TEXT
100
AcDbText
 10
63.0
 20
356.5
 30
0.0
 40
1.85
  1
TAc
  7
CJK
 72
1
 11
63.0
 21
356.5
 31
0.0
100
AcDbText
  0
TEXT
  5
188
330
17
100
AcDbEntity
  8
TEXT
100
AcDbText
 10
53.0
 20
350.5
 30
0.0
 40
1.4
  1
k1
  7
CJK
 72
2
 11
53.0
 21
350.5
 31
0.0
100
AcDbText
  0
TEXT
  5
189
330
17
100
AcDbEntity
  8
TEXT
100
AcDbText
 10
53.0
 20
345.5
 30
0.0
 40
1.4
  1
k2
  7
CJK
 72
2
 11
53.0
 21
345.5
 31
0.0
100
AcDbText
  0
LINE
  5
18A
330
17
100
AcDbEntity
  8
WIRING
100
AcDbLine
 10
67.0
 20
348.0
 30
0.0
 11
98.0
 21
348.0
 31
0.0
  0
CIRCLE
  5
18B
330
17
100
AcDbEntity
  8
SYMBOLS
100
AcDbCircle
 10
108.0
 20
348.0
 30
0.0
 40
3.0
  0
TEXT
  5
18C
330
17
100
AcDbEntity
  8
TEXT
100
AcDbText
 10
108.0
 20
348.0
 30
0.0
 40
1.7
  1
7
  7
CJK
 72
1
 11
108.0
 21
348.0
 31
0.0
100
AcDbText
 73
2
  0
LINE
  5
18D
330
17
100
AcDbEntity
  8
WIRING
100
AcDbLine
 10
111.0
 20
348.0
 30
0.0
 11
160.0
 21
348.0
 31
0.0
  0
CIRCLE
  5
18E
330
17
100
AcDbEntity
  8
SYMBOLS
100
AcDbCircle
 10
163.0
 20
348.0
 30
0.0
 40
3.0
  0
TEXT
  5
18F
330
17
100
AcDbEntity
  8
TEXT
100
AcDbText
 10
163.0
 20
348.0
 30
0.0
 40
1.7
  1
9
  7
CJK
 72
1
 11
163.0
 21
348.0
 31
0.0
100
AcDbText
 73
2
  0
LINE
  5
190
330
17
100
AcDbEntity
  8
WIRING
100
AcDbLine
 10
166.0
 20
348.0
 30
0.0
 11
201.5
 21
348.0
 31
0.0
  0
CIRCLE
  5
191
330
17
100
AcDbEntity
  8
SYMBOLS
100
AcDbCircle
 10
208.0
 20
348.0
 30
0.0
 40
6.0
  0
TEXT
  5
192
330
17
100
AcDbEntity
  8
TEXT
100
AcDbText
 10
208.0
 20
348.0
 30
0.0
 40
2.8
  1
A
  7
CJK
 72
1
 11
208.0
 21
348.0
 31
0.0
100
AcDbText
 73
2
  0
TEXT
  5
193
330
17
100
AcDbEntity
  8
TEXT
100
AcDbText
 10
208.0
 20
357.0
 30
0.0
 40
1.85
  1
PAc
  7
CJK
 72
1
 11
208.0
 21
357.0
 31
0.0
100
AcDbText
  0
LWPOLYLINE
  5
194
330
17
100
AcDbEntity
  8
SYMBOLS
100
AcDbPolyline
 90
4
 70
1
 10
220.0
 20
344.75
 10
242.0
 20
344.75
 10
242.0
 20
351.25
 10
220.0
 20
351.25
  0
TEXT
  5
195
330
17
100
AcDbEntity
  8
TEXT
100
AcDbText
 10
231.0
 20
348.0
 30
0.0
 40
1.9
  1
C电流
  7
CJK
 72
1
 11
231.0
 21
348.0
 31
0.0
100
AcDbText
 73
2
  0
LINE
  5
196
330
17
100
AcDbEntity
  8
WIRING
100
AcDbLine
 10
208.0
 20
342.0
 30
0.0
 11
208.0
 21
338.0
 31
0.0
  0
LINE
  5
197
330
17
100
AcDbEntity
  8
WIRING
100
AcDbLine
 10
208.0
 20
374.0
 30
0.0
 11
208.0
 21
334.0
 31
0.0
  0
CIRCLE
  5
198
330
17
100
AcDbEntity
  8
SYMBOLS
100
AcDbCircle
 10
208.0
 20
334.0
 30
0.0
 40
0.0
  0
LWPOLYLINE
  5
19A
330
17
100
AcDbEntity
  8
SYMBOLS
100
AcDbPolyline
 90
12
 70
1
 10
208.0
 20
334.0
 10
208.0
 20
334.0
 10
208.0
 20
334.0
 10
208.0
 20
334.0
 10
208.0
 20
334.0
 10
208.0
 20
334.0
 10
208.0
 20
334.0
 10
208.0
 20
334.0
 10
208.0
 20
334.0
 10
208.0
 20
334.0
 10
208.0
 20
334.0
 10
208.0
 20
334.0
  0
LINE
  5
19B
330
17
100
AcDbEntity
  8
WIRING
100
AcDbLine
 10
208.0
 20
358.0
 30
0.0
 11
208.0
 21
334.0
 31
0.0
  0
CIRCLE
  5
19C
330
17
100
AcDbEntity
  8
SYMBOLS
100
AcDbCircle
 10
208.0
 20
334.0
 30
0.0
 40
0.0
  0
LWPOLYLINE
  5
19E
330
17
100
AcDbEntity
  8
SYMBOLS
100
AcDbPolyline
 90
12
 70
1
 10
208.0
 20
334.0
 10
208.0
 20
334.0
 10
208.0
 20
334.0
 10
208.0
 20
334.0
 10
208.0
 20
334.0
 10
208.0
 20
334.0
 10
208.0
 20
334.0
 10
208.0
 20
334.0
 10
208.0
 20
334.0
 10
208.0
 20
334.0
 10
208.0
 20
334.0
 10
208.0
 20
334.0
  0
LINE
  5
19F
330
17
100
AcDbEntity
  8
WIRING
100
AcDbLine
 10
208.0
 20
342.0
 30
0.0
 11
208.0
 21
334.0
 31
0.0
  0
LINE
  5
1A0
330
17
100
AcDbEntity
  8
WIRING
100
AcDbLine
 10
208.0
 20
374.0
 30
0.0
 11
208.0
 21
334.0
 31
0.0
  0
CIRCLE
  5
1A1
330
17
100
AcDbEntity
  8
SYMBOLS
100
AcDbCircle
 10
208.0
 20
374.0
 30
0.0
 40
0.7
  0
LWPOLYLINE
  5
1A3
330
17
100
AcDbEntity
  8
SYMBOLS
100
AcDbPolyline
 90
12
 70
1
 43
1.1199999999999999
 10
208.7
 20
374.0
 10
208.6062177826491
 20
374.35
 10
208.35
 20
374.6062177826491
 10
208.0
 20
374.7
 10
207.65
 20
374.6062177826491
 10
207.3937822173509
 20
374.35
 10
207.3
 20
374.0
 10
207.3937822173509
 20
373.65
 10
207.65
 20
373.3937822173509
 10
208.0
 20
373.3
 10
208.35
 20
373.3937822173509
 10
208.6062177826491
 20
373.65
  0
CIRCLE
  5
1A4
330
17
100
AcDbEntity
  8
SYMBOLS
100
AcDbCircle
 10
208.0
 20
358.0
 30
0.0
 40
0.7
  0
LWPOLYLINE
  5
1A6
330
17
100
AcDbEntity
  8
SYMBOLS
100
AcDbPolyline
 90
12
 70
1
 43
1.1199999999999999
 10
208.7
 20
358.0
 10
208.6062177826491
 20
358.35
 10
208.35
 20
358.6062177826491
 10
208.0
 20
358.7
 10
207.65
 20
358.6062177826491
 10
207.3937822173509
 20
358.35
 10
207.3
 20
358.0
 10
207.3937822173509
 20
357.65
 10
207.65
 20
357.3937822173509
 10
208.0
 20
357.3
 10
208.35
 20
357.3937822173509
 10
208.6062177826491
 20
357.65
  0
CIRCLE
  5
1A7
330
17
100
AcDbEntity
  8
SYMBOLS
100
AcDbCircle
 10
208.0
 20
342.0
 30
0.0
 40
0.7
  0
LWPOLYLINE
  5
1A9
330
17
100
AcDbEntity
  8
SYMBOLS
100
AcDbPolyline
 90
12
 70
1
 43
1.1199999999999999
 10
208.7
 20
342.0
 10
208.6062177826491
 20
342.35
 10
208.35
 20
342.6062177826491
 10
208.0
 20
342.7
 10
207.65
 20
342.6062177826491
 10
207.3937822173509
 20
342.35
 10
207.3
 20
342.0
 10
207.3937822173509
 20
341.65
 10
207.65
 20
341.3937822173509
 10
208.0
 20
341.3
 10
208.35
 20
341.3937822173509
 10
208.6062177826491
 20
341.65
  0
LINE
  5
1AA
330
17
100
AcDbEntity
  8
WIRING
100
AcDbLine
 10
63.0
 20
375.0
 30
0.0
 11
63.0
 21
334.0
 31
0.0
  0
LINE
  5
1AB
330
17
100
AcDbEntity
  8
WIRING
100
AcDbLine
 10
63.0
 20
359.0
 30
0.0
 11
63.0
 21
334.0
 31
0.0
  0
LINE
  5
1AC
330
17
100
AcDbEntity
  8
WIRING
100
AcDbLine
 10
63.0
 20
343.0
 30
0.0
 11
63.0
 21
334.0
 31
0.0
  0
LINE
  5
1AD
330
17
100
AcDbEntity
  8
WIRING
100
AcDbLine
 10
63.0
 20
334.0
 30
0.0
 11
208.0
 21
334.0
 31
0.0
  0
TEXT
  5
1AE
330
17
100
AcDbEntity
  8
TEXT
100
AcDbText
 10
71.0
 20
337.2
 30
0.0
 40
1.5
  1
10
  7
CJK
 11
71.0
 21
337.2
 31
0.0
100
AcDbText
  0
LINE
  5
1AF
330
17
100
AcDbEntity
  8
WIRING
100
AcDbLine
 10
103.0
 20
334.0
 30
0.0
 11
103.0
 21
331.2
 31
0.0
  0
LINE
  5
1B0
330
17
100
AcDbEntity
  8
SYMBOLS
100
AcDbLine
 10
99.0
 20
331.2
 30
0.0
 11
107.0
 21
331.2
 31
0.0
  0
LINE
  5
1B1
330
17
100
AcDbEntity
  8
SYMBOLS
100
AcDbLine
 10
100.4
 20
329.3
 30
0.0
 11
105.6
 21
329.3
 31
0.0
  0
LINE
  5
1B2
330
17
100
AcDbEntity
  8
SYMBOLS
100
AcDbLine
 10
101.7
 20
327.4
 30
0.0
 11
104.3
 21
327.4
 31
0.0
  0
TEXT
  5
1B3
330
17
100
AcDbEntity
  8
TEXT
100
AcDbText
 10
113.0
 20
329.0
 30
0.0
 40
2.0
  1
PE
  7
CJK
 11
113.0
 21
329.0
 31
0.0
100
AcDbText
  0
CIRCLE
  5
1B4
330
17
100
AcDbEntity
  8
SYMBOLS
100
AcDbCircle
 10
103.0
 20
334.0
 30
0.0
 40
0.85
  0
LWPOLYLINE
  5
1B6
330
17
100
AcDbEntity
  8
SYMBOLS
100
AcDbPolyline
 90
12
 70
1
 43
1.36
 10
103.85
 20
334.0
 10
103.73612159321678
 20
334.425
 10
103.425
 20
334.73612159321675
 10
103.0
 20
334.85
 10
102.575
 20
334.73612159321675
 10
102.26387840678322
 20
334.425
 10
102.15
 20
334.0
 10
102.26387840678322
 20
333.575
 10
102.575
 20
333.26387840678325
 10
103.0
 20
333.15
 10
103.425
 20
333.26387840678325
 10
103.73612159321678
 20
333.575
  0
CIRCLE
  5
1B7
330
17
100
AcDbEntity
  8
SYMBOLS
100
AcDbCircle
 10
465.08
 20
556.0
 30
0.0
 40
5.5
  0
TEXT
  5
1B8
330
17
100
AcDbEntity
  8
TEXT
100
AcDbText
 10
465.08
 20
556.0
 30
0.0
 40
2.4
  1
A
  7
CJK
 72
1
 11
465.08
 21
556.0
 31
0.0
100
AcDbText
 73
2
  0
CIRCLE
  5
1B9
330
17
100
AcDbEntity
  8
SYMBOLS
100
AcDbCircle
 10
483.08
 20
556.0
 30
0.0
 40
5.5
  0
TEXT
  5
1BA
330
17
100
AcDbEntity
  8
TEXT
100
AcDbText
 10
483.08
 20
556.0
 30
0.0
 40
2.4
  1
A
  7
CJK
 72
1
 11
483.08
 21
556.0
 31
0.0
100
AcDbText
 73
2
  0
CIRCLE
  5
1BB
330
17
100
AcDbEntity
  8
SYMBOLS
100
AcDbCircle
 10
501.08
 20
556.0
 30
0.0
 40
5.5
  0
TEXT
  5
1BC
330
17
100
AcDbEntity
  8
TEXT
100
AcDbText
 10
501.08
 20
556.0
 30
0.0
 40
2.4
  1
A
  7
CJK
 72
1
 11
501.08
 21
556.0
 31
0.0
100
AcDbText
 73
2
  0
CIRCLE
  5
1BD
330
17
100
AcDbEntity
  8
SYMBOLS
100
AcDbCircle
 10
519.0799999999999
 20
556.0
 30
0.0
 40
5.5
  0
TEXT
  5
1BE
330
17
100
AcDbEntity
  8
TEXT
100
AcDbText
 10
519.0799999999999
 20
556.0
 30
0.0
 40
2.4
  1
V
  7
CJK
 72
1
 11
519.0799999999999
 21
556.0
 31
0.0
100
AcDbText
 73
2
  0
CIRCLE
  5
1BF
330
17
100
AcDbEntity
  8
SYMBOLS
100
AcDbCircle
 10
537.0799999999999
 20
556.0
 30
0.0
 40
5.5
  0
TEXT
  5
1C0
330
17
100
AcDbEntity
  8
TEXT
100
AcDbText
 10
537.0799999999999
 20
556.0
 30
0.0
 40
2.0
  1
Wh
  7
CJK
 72
1
 11
537.0799999999999
 21
556.0
 31
0.0
100
AcDbText
 73
2
  0
CIRCLE
  5
1C1
330
17
100
AcDbEntity
  8
SYMBOLS
100
AcDbCircle
 10
578.8864
 20
534.0
 30
0.0
 40
5.2
  0
LINE
  5
1C2
330
17
100
AcDbEntity
  8
SYMBOLS
100
AcDbLine
 10
575.2464
 20
530.36
 30
0.0
 11
582.5264
 21
537.64
 31
0.0
  0
LINE
  5
1C3
330
17
100
AcDbEntity
  8
WIRING
100
AcDbLine
 10
578.8864
 20
539.2
 30
0.0
 11
578.8864
 21
541.0
 31
0.0
  0
LINE
  5
1C4
330
17
100
AcDbEntity
  8
WIRING
100
AcDbLine
 10
578.8864
 20
528.8
 30
0.0
 11
578.8864
 21
525.1999999999999
 31
0.0
  0
CIRCLE
  5
1C5
330
17
100
AcDbEntity
  8
SYMBOLS
100
AcDbCircle
 10
578.8864
 20
520.0
 30
0.0
 40
5.2
  0
LINE
  5
1C6
330
17
100
AcDbEntity
  8
SYMBOLS
100
AcDbLine
 10
575.2464
 20
516.36
 30
0.0
 11
582.5264
 21
523.64
 31
0.0
  0
LINE
  5
1C7
330
17
100
AcDbEntity
  8
WIRING
100
AcDbLine
 10
578.8864
 20
525.2
 30
0.0
 11
578.8864
 21
528.8000000000001
 31
0.0
  0
LINE
  5
1C8
330
17
100
AcDbEntity
  8
WIRING
100
AcDbLine
 10
578.8864
 20
514.8
 30
0.0
 11
578.8864
 21
511.19999999999993
 31
0.0
  0
CIRCLE
  5
1C9
330
17
100
AcDbEntity
  8
SYMBOLS
100
AcDbCircle
 10
578.8864
 20
506.0
 30
0.0
 40
5.2
  0
LINE
  5
1CA
330
17
100
AcDbEntity
  8
SYMBOLS
100
AcDbLine
 10
575.2464
 20
502.36
 30
0.0
 11
582.5264
 21
509.64
 31
0.0
  0
LINE
  5
1CB
330
17
100
AcDbEntity
  8
WIRING
100
AcDbLine
 10
578.8864
 20
511.2
 30
0.0
 11
578.8864
 21
514.8
 31
0.0
  0
TEXT
  5
1CC
330
17
100
AcDbEntity
  8
TEXT
100
AcDbText
 10
590.8864
 20
520.0
 30
0.0
 40
2.3
  1
LMZJ1-800/5 0.5
  7
CJK
 11
590.8864
 21
520.0
 31
0.0
100
AcDbText
  0
TEXT
  5
1CD
330
17
100
AcDbEntity
  8
TEXT
100
AcDbText
 10
556.8864
 20
542.0
 30
0.0
 40
2.5
  1
L1~3
  7
CJK
 72
1
 11
556.8864
 21
542.0
 31
0.0
100
AcDbText
  0
LINE
  5
1CE
330
17
100
AcDbEntity
  8
SYMBOLS
100
AcDbLine
 10
574.8864
 20
548.0
 30
0.0
 11
582.8864
 21
551.0
 31
0.0
  0
LINE
  5
1CF
330
17
100
AcDbEntity
  8
SYMBOLS
100
AcDbLine
 10
574.8864
 20
550.2
 30
0.0
 11
582.8864
 21
553.2
 31
0.0
  0
LINE
  5
1D0
330
17
100
AcDbEntity
  8
SYMBOLS
100
AcDbLine
 10
574.8864
 20
552.4
 30
0.0
 11
582.8864
 21
555.4
 31
0.0
  0
LINE
  5
1D1
330
17
100
AcDbEntity
  8
WIRING
100
AcDbLine
 10
578.8864
 20
552.0
 30
0.0
 11
578.8864
 21
549.2
 31
0.0
  0
LINE
  5
1D2
330
17
100
AcDbEntity
  8
WIRING
100
AcDbLine
 10
578.8864
 20
500.8
 30
0.0
 11
578.8864
 21
488.0
 31
0.0
  0
LINE
  5
1D3
330
17
100
AcDbEntity
  8
WIRING
100
AcDbLine
 10
578.8864
 20
489.0
 30
0.0
 11
578.8864
 21
481.8
 31
0.0
  0
LINE
  5
1D4
330
17
100
AcDbEntity
  8
WIRING
100
AcDbLine
 10
578.8864
 20
474.2
 30
0.0
 11
578.8864
 21
467.0
 31
0.0
  0
LINE
  5
1D5
330
17
100
AcDbEntity
  8
SYMBOLS
100
AcDbLine
 10
578.8864
 20
481.8
 30
0.0
 11
585.3864
 21
476.8
 31
0.0
  0
LINE
  5
1D6
330
17
100
AcDbEntity
  8
SYMBOLS
100
AcDbLine
 10
575.8864
 20
479.5
 30
0.0
 11
581.8864
 21
479.5
 31
0.0
  0
LINE
  5
1D7
330
17
100
AcDbEntity
  8
SYMBOLS
100
AcDbLine
 10
578.8864
 20
479.5
 30
0.0
 11
578.8864
 21
481.5
 31
0.0
  0
TEXT
  5
1D8
330
17
100
AcDbEntity
  8
TEXT
100
AcDbText
 10
588.8864
 20
482.0
 30
0.0
 40
2.3
  1
QDM1-800/3300 800A
  7
CJK
 11
588.8864
 21
482.0
 31
0.0
100
AcDbText
  0
LINE
  5
1D9
330
17
100
AcDbEntity
  8
WIRING
100
AcDbLine
 10
578.8864
 20
467.0
 30
0.0
 11
578.8864
 21
450.0
 31
0.0
  0
TEXT
  5
1DA
330
17
100
AcDbEntity
  8
TEXT
100
AcDbText
 10
556.8864
 20
460.0
 30
0.0
 40
2.3
  1
L11~13
  7
CJK
 72
1
 11
556.8864
 21
460.0
 31
0.0
100
AcDbText
  0
LINE
  5
1DB
330
17
100
AcDbEntity
  8
WIRING
100
AcDbLine
 10
533.8864
 20
539.0
 30
0.0
 11
533.8864
 21
458.0
 31
0.0
  0
CIRCLE
  5
1DC
330
17
100
AcDbEntity
  8
SYMBOLS
100
AcDbCircle
 10
533.8864
 20
539.0
 30
0.0
 40
2.0
  0
TEXT
  5
1DD
330
17
100
AcDbEntity
  8
TEXT
100
AcDbText
 10
533.8864
 20
546.0
 30
0.0
 40
2.5
  1
N
  7
CJK
 72
1
 11
533.8864
 21
546.0
 31
0.0
100
AcDbText
  0
LINE
  5
1DE
330
17
100
AcDbEntity
  8
WIRING
100
AcDbLine
 10
508.8864
 20
539.0
 30
0.0
 11
508.8864
 21
466.0
 31
0.0
  0
CIRCLE
  5
1DF
330
17
100
AcDbEntity
  8
SYMBOLS
100
AcDbCircle
 10
508.8864
 20
539.0
 30
0.0
 40
2.0
  0
TEXT
  5
1E0
330
17
100
AcDbEntity
  8
TEXT
100
AcDbText
 10
508.8864
 20
546.0
 30
0.0
 40
2.5
  1
PE
  7
CJK
 72
1
 11
508.8864
 21
546.0
 31
0.0
100
AcDbText
  0
LINE
  5
1E1
330
17
100
AcDbEntity
  8
WIRING
100
AcDbLine
 10
508.8864
 20
466.0
 30
0.0
 11
508.8864
 21
463.2
 31
0.0
  0
LINE
  5
1E2
330
17
100
AcDbEntity
  8
SYMBOLS
100
AcDbLine
 10
504.8864
 20
463.2
 30
0.0
 11
512.8864
 21
463.2
 31
0.0
  0
LINE
  5
1E3
330
17
100
AcDbEntity
  8
SYMBOLS
100
AcDbLine
 10
506.28639999999996
 20
461.3
 30
0.0
 11
511.4864
 21
461.3
 31
0.0
  0
LINE
  5
1E4
330
17
100
AcDbEntity
  8
SYMBOLS
100
AcDbLine
 10
507.58639999999997
 20
459.4
 30
0.0
 11
510.1864
 21
459.4
 31
0.0
  0
LWPOLYLINE
  5
1E5
330
17
100
AcDbEntity
  8
BUSBAR
100
AcDbPolyline
 90
2
 70
0
 43
2.8
 10
418.08
 20
450.0
 10
802.0
 20
450.0
  0
LINE
  5
1E6
330
17
100
AcDbEntity
  8
WIRING
100
AcDbLine
 10
578.8864
 20
467.0
 30
0.0
 11
578.8864
 21
451.4
 31
0.0
  0
CIRCLE
  5
1E7
330
17
100
AcDbEntity
  8
SYMBOLS
100
AcDbCircle
 10
578.8864
 20
450.0
 30
0.0
 40
1.1
  0
LWPOLYLINE
  5
1E9
330
17
100
AcDbEntity
  8
SYMBOLS
100
AcDbPolyline
 90
12
 70
1
 43
1.7600000000000002
 10
579.9864
 20
450.0
 10
579.8390279441628
 20
450.55
 10
579.4363999999999
 20
450.9526279441629
 10
578.8864
 20
451.1
 10
578.3364
 20
450.9526279441629
 10
577.9337720558372
 20
450.55
 10
577.7864
 20
450.0
 10
577.9337720558372
 20
449.45
 10
578.3364
 20
449.0473720558371
 10
578.8864
 20
448.9
 10
579.4363999999999
 20
449.0473720558371
 10
579.8390279441628
 20
449.45
  0
LINE
  5
1EA
330
17
100
AcDbEntity
  8
WIRING
100
AcDbLine
 10
446.8533333333333
 20
448.6
 30
0.0
 11
446.8533333333333
 21
438.0
 31
0.0
  0
LINE
  5
1EB
330
17
100
AcDbEntity
  8
SYMBOLS
100
AcDbLine
 10
443.8533333333333
 20
442.0
 30
0.0
 11
449.8533333333333
 21
445.0
 31
0.0
  0
LINE
  5
1EC
330
17
100
AcDbEntity
  8
SYMBOLS
100
AcDbLine
 10
443.8533333333333
 20
440.0
 30
0.0
 11
449.8533333333333
 21
443.0
 31
0.0
  0
LINE
  5
1ED
330
17
100
AcDbEntity
  8
WIRING
100
AcDbLine
 10
446.8533333333333
 20
430.0
 30
0.0
 11
446.8533333333333
 21
425.2
 31
0.0
  0
LINE
  5
1EE
330
17
100
AcDbEntity
  8
WIRING
100
AcDbLine
 10
446.8533333333333
 20
418.8
 30
0.0
 11
446.8533333333333
 21
414.0
 31
0.0
  0
LINE
  5
1EF
330
17
100
AcDbEntity
  8
SYMBOLS
100
AcDbLine
 10
446.8533333333333
 20
425.2
 30
0.0
 11
451.8533333333333
 21
421.2
 31
0.0
  0
LINE
  5
1F0
330
17
100
AcDbEntity
  8
SYMBOLS
100
AcDbLine
 10
444.6533333333333
 20
423.0
 30
0.0
 11
449.0533333333333
 21
423.0
 31
0.0
  0
LINE
  5
1F1
330
17
100
AcDbEntity
  8
SYMBOLS
100
AcDbLine
 10
446.8533333333333
 20
423.0
 30
0.0
 11
446.8533333333333
 21
425.0
 31
0.0
  0
TEXT
  5
1F2
330
17
100
AcDbEntity
  8
TEXT
100
AcDbText
 10
443.3533333333333
 20
416.0
 30
0.0
 40
1.55
  1
QDM1-400/3300 315A
 50
90.0
  7
CJK
 11
443.3533333333333
 21
416.0
 31
0.0
100
AcDbText
  0
LINE
  5
1F3
330
17
100
AcDbEntity
  8
WIRING
100
AcDbLine
 10
446.8533333333333
 20
414.0
 30
0.0
 11
446.8533333333333
 21
392.0
 31
0.0
  0
LWPOLYLINE
  5
1F4
330
17
100
AcDbEntity
  8
SYMBOLS
100
AcDbPolyline
 90
3
 70
1
 10
444.9833333333333
 20
392.0
 10
448.7233333333333
 20
392.0
 10
446.8533333333333
 20
388.6
  0
LINE
  5
1F5
330
17
100
AcDbEntity
  8
WIRING
100
AcDbLine
 10
488.4
 20
448.6
 30
0.0
 11
488.4
 21
438.0
 31
0.0
  0
LINE
  5
1F6
330
17
100
AcDbEntity
  8
SYMBOLS
100
AcDbLine
 10
485.4
 20
442.0
 30
0.0
 11
491.4
 21
445.0
 31
0.0
  0
LINE
  5
1F7
330
17
100
AcDbEntity
  8
SYMBOLS
100
AcDbLine
 10
485.4
 20
440.0
 30
0.0
 11
491.4
 21
443.0
 31
0.0
  0
LINE
  5
1F8
330
17
100
AcDbEntity
  8
WIRING
100
AcDbLine
 10
488.4
 20
430.0
 30
0.0
 11
488.4
 21
425.2
 31
0.0
  0
LINE
  5
1F9
330
17
100
AcDbEntity
  8
WIRING
100
AcDbLine
 10
488.4
 20
418.8
 30
0.0
 11
488.4
 21
414.0
 31
0.0
  0
LINE
  5
1FA
330
17
100
AcDbEntity
  8
SYMBOLS
100
AcDbLine
 10
488.4
 20
425.2
 30
0.0
 11
493.4
 21
421.2
 31
0.0
  0
LINE
  5
1FB
330
17
100
AcDbEntity
  8
SYMBOLS
100
AcDbLine
 10
486.2
 20
423.0
 30
0.0
 11
490.59999999999997
 21
423.0
 31
0.0
  0
LINE
  5
1FC
330
17
100
AcDbEntity
  8
SYMBOLS
100
AcDbLine
 10
488.4
 20
423.0
 30
0.0
 11
488.4
 21
425.0
 31
0.0
  0
TEXT
  5
1FD
330
17
100
AcDbEntity
  8
TEXT
100
AcDbText
 10
484.9
 20
416.0
 30
0.0
 40
1.55
  1
QDM1-400/3300 315A
 50
90.0
  7
CJK
 11
484.9
 21
416.0
 31
0.0
100
AcDbText
  0
LINE
  5
1FE
330
17
100
AcDbEntity
  8
WIRING
100
AcDbLine
 10
488.4
 20
414.0
 30
0.0
 11
488.4
 21
392.0
 31
0.0
  0
LWPOLYLINE
  5
1FF
330
17
100
AcDbEntity
  8
SYMBOLS
100
AcDbPolyline
 90
3
 70
1
 10
486.53
 20
392.0
 10
490.27
 20
392.0
 10
488.4
 20
388.6
  0
LINE
  5
200
330
17
100
AcDbEntity
  8
WIRING
100
AcDbLine
 10
529.9466666666667
 20
448.6
 30
0.0
 11
529.9466666666667
 21
438.0
 31
0.0
  0
LINE
  5
201
330
17
100
AcDbEntity
  8
SYMBOLS
100
AcDbLine
 10
526.9466666666667
 20
442.0
 30
0.0
 11
532.9466666666667
 21
445.0
 31
0.0
  0
LINE
  5
202
330
17
100
AcDbEntity
  8
SYMBOLS
100
AcDbLine
 10
526.9466666666667
 20
440.0
 30
0.0
 11
532.9466666666667
 21
443.0
 31
0.0
  0
LINE
  5
203
330
17
100
AcDbEntity
  8
WIRING
100
AcDbLine
 10
529.9466666666667
 20
430.0
 30
0.0
 11
529.9466666666667
 21
425.2
 31
0.0
  0
LINE
  5
204
330
17
100
AcDbEntity
  8
WIRING
100
AcDbLine
 10
529.9466666666667
 20
418.8
 30
0.0
 11
529.9466666666667
 21
414.0
 31
0.0
  0
LINE
  5
205
330
17
100
AcDbEntity
  8
SYMBOLS
100
AcDbLine
 10
529.9466666666667
 20
425.2
 30
0.0
 11
534.9466666666667
 21
421.2
 31
0.0
  0
LINE
  5
206
330
17
100
AcDbEntity
  8
SYMBOLS
100
AcDbLine
 10
527.7466666666667
 20
423.0
 30
0.0
 11
532.1466666666668
 21
423.0
 31
0.0
  0
LINE
  5
207
330
17
100
AcDbEntity
  8
SYMBOLS
100
AcDbLine
 10
529.9466666666667
 20
423.0
 30
0.0
 11
529.9466666666667
 21
425.0
 31
0.0
  0
TEXT
  5
208
330
17
100
AcDbEntity
  8
TEXT
100
AcDbText
 10
526.4466666666667
 20
416.0
 30
0.0
 40
1.55
  1
QDM1-250/3300 250A
 50
90.0
  7
CJK
 11
526.4466666666667
 21
416.0
 31
0.0
100
AcDbText
  0
LINE
  5
209
330
17
100
AcDbEntity
  8
WIRING
100
AcDbLine
 10
529.9466666666667
 20
414.0
 30
0.0
 11
529.9466666666667
 21
392.0
 31
0.0
  0
LWPOLYLINE
  5
20A
330
17
100
AcDbEntity
  8
SYMBOLS
100
AcDbPolyline
 90
3
 70
1
 10
528.0766666666667
 20
392.0
 10
531.8166666666667
 20
392.0
 10
529.9466666666667
 20
388.6
  0
LINE
  5
20B
330
17
100
AcDbEntity
  8
WIRING
100
AcDbLine
 10
571.4933333333333
 20
448.6
 30
0.0
 11
571.4933333333333
 21
438.0
 31
0.0
  0
LINE
  5
20C
330
17
100
AcDbEntity
  8
SYMBOLS
100
AcDbLine
 10
568.4933333333333
 20
442.0
 30
0.0
 11
574.4933333333333
 21
445.0
 31
0.0
  0
LINE
  5
20D
330
17
100
AcDbEntity
  8
SYMBOLS
100
AcDbLine
 10
568.4933333333333
 20
440.0
 30
0.0
 11
574.4933333333333
 21
443.0
 31
0.0
  0
LINE
  5
20E
330
17
100
AcDbEntity
  8
WIRING
100
AcDbLine
 10
571.4933333333333
 20
430.0
 30
0.0
 11
571.4933333333333
 21
425.2
 31
0.0
  0
LINE
  5
20F
330
17
100
AcDbEntity
  8
WIRING
100
AcDbLine
 10
571.4933333333333
 20
418.8
 30
0.0
 11
571.4933333333333
 21
414.0
 31
0.0
  0
LINE
  5
210
330
17
100
AcDbEntity
  8
SYMBOLS
100
AcDbLine
 10
571.4933333333333
 20
425.2
 30
0.0
 11
576.4933333333333
 21
421.2
 31
0.0
  0
LINE
  5
211
330
17
100
AcDbEntity
  8
SYMBOLS
100
AcDbLine
 10
569.2933333333333
 20
423.0
 30
0.0
 11
573.6933333333334
 21
423.0
 31
0.0
  0
LINE
  5
212
330
17
100
AcDbEntity
  8
SYMBOLS
100
AcDbLine
 10
571.4933333333333
 20
423.0
 30
0.0
 11
571.4933333333333
 21
425.0
 31
0.0
  0
TEXT
  5
213
330
17
100
AcDbEntity
  8
TEXT
100
AcDbText
 10
567.9933333333333
 20
416.0
 30
0.0
 40
1.55
  1
QDM1-250/3300 250A
 50
90.0
  7
CJK
 11
567.9933333333333
 21
416.0
 31
0.0
100
AcDbText
  0
LINE
  5
214
330
17
100
AcDbEntity
  8
WIRING
100
AcDbLine
 10
571.4933333333333
 20
414.0
 30
0.0
 11
571.4933333333333
 21
392.0
 31
0.0
  0
LWPOLYLINE
  5
215
330
17
100
AcDbEntity
  8
SYMBOLS
100
AcDbPolyline
 90
3
 70
1
 10
569.6233333333333
 20
392.0
 10
573.3633333333333
 20
392.0
 10
571.4933333333333
 20
388.6
  0
LINE
  5
216
330
17
100
AcDbEntity
  8
WIRING
100
AcDbLine
 10
613.04
 20
448.6
 30
0.0
 11
613.04
 21
438.0
 31
0.0
  0
LINE
  5
217
330
17
100
AcDbEntity
  8
SYMBOLS
100
AcDbLine
 10
610.04
 20
442.0
 30
0.0
 11
616.04
 21
445.0
 31
0.0
  0
LINE
  5
218
330
17
100
AcDbEntity
  8
SYMBOLS
100
AcDbLine
 10
610.04
 20
440.0
 30
0.0
 11
616.04
 21
443.0
 31
0.0
  0
LINE
  5
219
330
17
100
AcDbEntity
  8
WIRING
100
AcDbLine
 10
613.04
 20
430.0
 30
0.0
 11
613.04
 21
425.2
 31
0.0
  0
LINE
  5
21A
330
17
100
AcDbEntity
  8
WIRING
100
AcDbLine
 10
613.04
 20
418.8
 30
0.0
 11
613.04
 21
414.0
 31
0.0
  0
LINE
  5
21B
330
17
100
AcDbEntity
  8
SYMBOLS
100
AcDbLine
 10
613.04
 20
425.2
 30
0.0
 11
618.04
 21
421.2
 31
0.0
  0
LINE
  5
21C
330
17
100
AcDbEntity
  8
SYMBOLS
100
AcDbLine
 10
610.8399999999999
 20
423.0
 30
0.0
 11
615.24
 21
423.0
 31
0.0
  0
LINE
  5
21D
330
17
100
AcDbEntity
  8
SYMBOLS
100
AcDbLine
 10
613.04
 20
423.0
 30
0.0
 11
613.04
 21
425.0
 31
0.0
  0
TEXT
  5
21E
330
17
100
AcDbEntity
  8
TEXT
100
AcDbText
 10
609.54
 20
416.0
 30
0.0
 40
1.55
  1
QDM1-250/3300 160A
 50
90.0
  7
CJK
 11
609.54
 21
416.0
 31
0.0
100
AcDbText
  0
LINE
  5
21F
330
17
100
AcDbEntity
  8
WIRING
100
AcDbLine
 10
613.04
 20
414.0
 30
0.0
 11
613.04
 21
392.0
 31
0.0
  0
LWPOLYLINE
  5
220
330
17
100
AcDbEntity
  8
SYMBOLS
100
AcDbPolyline
 90
3
 70
1
 10
611.17
 20
392.0
 10
614.91
 20
392.0
 10
613.04
 20
388.6
  0
LINE
  5
221
330
17
100
AcDbEntity
  8
WIRING
100
AcDbLine
 10
654.5866666666666
 20
448.6
 30
0.0
 11
654.5866666666666
 21
438.0
 31
0.0
  0
LINE
  5
222
330
17
100
AcDbEntity
  8
SYMBOLS
100
AcDbLine
 10
651.5866666666666
 20
442.0
 30
0.0
 11
657.5866666666666
 21
445.0
 31
0.0
  0
LINE
  5
223
330
17
100
AcDbEntity
  8
SYMBOLS
100
AcDbLine
 10
651.5866666666666
 20
440.0
 30
0.0
 11
657.5866666666666
 21
443.0
 31
0.0
  0
LINE
  5
224
330
17
100
AcDbEntity
  8
WIRING
100
AcDbLine
 10
654.5866666666666
 20
430.0
 30
0.0
 11
654.5866666666666
 21
425.2
 31
0.0
  0
LINE
  5
225
330
17
100
AcDbEntity
  8
WIRING
100
AcDbLine
 10
654.5866666666666
 20
418.8
 30
0.0
 11
654.5866666666666
 21
414.0
 31
0.0
  0
LINE
  5
226
330
17
100
AcDbEntity
  8
SYMBOLS
100
AcDbLine
 10
654.5866666666666
 20
425.2
 30
0.0
 11
659.5866666666666
 21
421.2
 31
0.0
  0
LINE
  5
227
330
17
100
AcDbEntity
  8
SYMBOLS
100
AcDbLine
 10
652.3866666666665
 20
423.0
 30
0.0
 11
656.7866666666666
 21
423.0
 31
0.0
  0
LINE
  5
228
330
17
100
AcDbEntity
  8
SYMBOLS
100
AcDbLine
 10
654.5866666666666
 20
423.0
 30
0.0
 11
654.5866666666666
 21
425.0
 31
0.0
  0
TEXT
  5
229
330
17
100
AcDbEntity
  8
TEXT
100
AcDbText
 10
651.0866666666666
 20
416.0
 30
0.0
 40
1.55
  1
QDM1-250/3300 160A
 50
90.0
  7
CJK
 11
651.0866666666666
 21
416.0
 31
0.0
100
AcDbText
  0
LINE
  5
22A
330
17
100
AcDbEntity
  8
WIRING
100
AcDbLine
 10
654.5866666666666
 20
414.0
 30
0.0
 11
654.5866666666666
 21
392.0
 31
0.0
  0
LWPOLYLINE
  5
22B
330
17
100
AcDbEntity
  8
SYMBOLS
100
AcDbPolyline
 90
3
 70
1
 10
652.7166666666666
 20
392.0
 10
656.4566666666666
 20
392.0
 10
654.5866666666666
 20
388.6
  0
LINE
  5
22C
330
17
100
AcDbEntity
  8
WIRING
100
AcDbLine
 10
696.1333333333333
 20
448.6
 30
0.0
 11
696.1333333333333
 21
438.0
 31
0.0
  0
LINE
  5
22D
330
17
100
AcDbEntity
  8
SYMBOLS
100
AcDbLine
 10
693.1333333333333
 20
442.0
 30
0.0
 11
699.1333333333333
 21
445.0
 31
0.0
  0
LINE
  5
22E
330
17
100
AcDbEntity
  8
SYMBOLS
100
AcDbLine
 10
693.1333333333333
 20
440.0
 30
0.0
 11
699.1333333333333
 21
443.0
 31
0.0
  0
LINE
  5
22F
330
17
100
AcDbEntity
  8
WIRING
100
AcDbLine
 10
696.1333333333333
 20
430.0
 30
0.0
 11
696.1333333333333
 21
425.2
 31
0.0
  0
LINE
  5
230
330
17
100
AcDbEntity
  8
WIRING
100
AcDbLine
 10
696.1333333333333
 20
418.8
 30
0.0
 11
696.1333333333333
 21
414.0
 31
0.0
  0
LINE
  5
231
330
17
100
AcDbEntity
  8
SYMBOLS
100
AcDbLine
 10
696.1333333333333
 20
425.2
 30
0.0
 11
701.1333333333333
 21
421.2
 31
0.0
  0
LINE
  5
232
330
17
100
AcDbEntity
  8
SYMBOLS
100
AcDbLine
 10
693.9333333333333
 20
423.0
 30
0.0
 11
698.3333333333334
 21
423.0
 31
0.0
  0
LINE
  5
233
330
17
100
AcDbEntity
  8
SYMBOLS
100
AcDbLine
 10
696.1333333333333
 20
423.0
 30
0.0
 11
696.1333333333333
 21
425.0
 31
0.0
  0
TEXT
  5
234
330
17
100
AcDbEntity
  8
TEXT
100
AcDbText
 10
692.6333333333333
 20
416.0
 30
0.0
 40
1.55
  1
QDM1-250/3300 200A
 50
90.0
  7
CJK
 11
692.6333333333333
 21
416.0
 31
0.0
100
AcDbText
  0
LINE
  5
235
330
17
100
AcDbEntity
  8
WIRING
100
AcDbLine
 10
696.1333333333333
 20
414.0
 30
0.0
 11
696.1333333333333
 21
392.0
 31
0.0
  0
LWPOLYLINE
  5
236
330
17
100
AcDbEntity
  8
SYMBOLS
100
AcDbPolyline
 90
3
 70
1
 10
694.2633333333333
 20
392.0
 10
698.0033333333333
 20
392.0
 10
696.1333333333333
 20
388.6
  0
LINE
  5
237
330
17
100
AcDbEntity
  8
WIRING
100
AcDbLine
 10
737.6800000000001
 20
448.6
 30
0.0
 11
737.6800000000001
 21
438.0
 31
0.0
  0
LINE
  5
238
330
17
100
AcDbEntity
  8
SYMBOLS
100
AcDbLine
 10
734.6800000000001
 20
442.0
 30
0.0
 11
740.6800000000001
 21
445.0
 31
0.0
  0
LINE
  5
239
330
17
100
AcDbEntity
  8
SYMBOLS
100
AcDbLine
 10
734.6800000000001
 20
440.0
 30
0.0
 11
740.6800000000001
 21
443.0
 31
0.0
  0
LINE
  5
23A
330
17
100
AcDbEntity
  8
WIRING
100
AcDbLine
 10
737.6800000000001
 20
430.0
 30
0.0
 11
737.6800000000001
 21
425.2
 31
0.0
  0
LINE
  5
23B
330
17
100
AcDbEntity
  8
WIRING
100
AcDbLine
 10
737.6800000000001
 20
418.8
 30
0.0
 11
737.6800000000001
 21
414.0
 31
0.0
  0
LINE
  5
23C
330
17
100
AcDbEntity
  8
SYMBOLS
100
AcDbLine
 10
737.6800000000001
 20
425.2
 30
0.0
 11
742.6800000000001
 21
421.2
 31
0.0
  0
LINE
  5
23D
330
17
100
AcDbEntity
  8
SYMBOLS
100
AcDbLine
 10
735.48
 20
423.0
 30
0.0
 11
739.8800000000001
 21
423.0
 31
0.0
  0
LINE
  5
23E
330
17
100
AcDbEntity
  8
SYMBOLS
100
AcDbLine
 10
737.6800000000001
 20
423.0
 30
0.0
 11
737.6800000000001
 21
425.0
 31
0.0
  0
TEXT
  5
23F
330
17
100
AcDbEntity
  8
TEXT
100
AcDbText
 10
734.1800000000001
 20
416.0
 30
0.0
 40
1.55
  1
QDM1-250/3300 200A
 50
90.0
  7
CJK
 11
734.1800000000001
 21
416.0
 31
0.0
100
AcDbText
  0
LINE
  5
240
330
17
100
AcDbEntity
  8
WIRING
100
AcDbLine
 10
737.6800000000001
 20
414.0
 30
0.0
 11
737.6800000000001
 21
392.0
 31
0.0
  0
LWPOLYLINE
  5
241
330
17
100
AcDbEntity
  8
SYMBOLS
100
AcDbPolyline
 90
3
 70
1
 10
735.8100000000001
 20
392.0
 10
739.5500000000001
 20
392.0
 10
737.6800000000001
 20
388.6
  0
LINE
  5
242
330
17
100
AcDbEntity
  8
WIRING
100
AcDbLine
 10
779.2266666666667
 20
448.6
 30
0.0
 11
779.2266666666667
 21
438.0
 31
0.0
  0
LINE
  5
243
330
17
100
AcDbEntity
  8
SYMBOLS
100
AcDbLine
 10
776.2266666666667
 20
442.0
 30
0.0
 11
782.2266666666667
 21
445.0
 31
0.0
  0
LINE
  5
244
330
17
100
AcDbEntity
  8
SYMBOLS
100
AcDbLine
 10
776.2266666666667
 20
440.0
 30
0.0
 11
782.2266666666667
 21
443.0
 31
0.0
  0
LINE
  5
245
330
17
100
AcDbEntity
  8
WIRING
100
AcDbLine
 10
779.2266666666667
 20
430.0
 30
0.0
 11
779.2266666666667
 21
425.2
 31
0.0
  0
LINE
  5
246
330
17
100
AcDbEntity
  8
WIRING
100
AcDbLine
 10
779.2266666666667
 20
418.8
 30
0.0
 11
779.2266666666667
 21
414.0
 31
0.0
  0
LINE
  5
247
330
17
100
AcDbEntity
  8
SYMBOLS
100
AcDbLine
 10
779.2266666666667
 20
425.2
 30
0.0
 11
784.2266666666667
 21
421.2
 31
0.0
  0
LINE
  5
248
330
17
100
AcDbEntity
  8
SYMBOLS
100
AcDbLine
 10
777.0266666666666
 20
423.0
 30
0.0
 11
781.4266666666667
 21
423.0
 31
0.0
  0
LINE
  5
249
330
17
100
AcDbEntity
  8
SYMBOLS
100
AcDbLine
 10
779.2266666666667
 20
423.0
 30
0.0
 11
779.2266666666667
 21
425.0
 31
0.0
  0
TEXT
  5
24A
330
17
100
AcDbEntity
  8
TEXT
100
AcDbText
 10
775.7266666666667
 20
416.0
 30
0.0
 40
1.55
  1
QDM1-125/3300 100A
 50
90.0
  7
CJK
 11
775.7266666666667
 21
416.0
 31
0.0
100
AcDbText
  0
LINE
  5
24B
330
17
100
AcDbEntity
  8
WIRING
100
AcDbLine
 10
779.2266666666667
 20
414.0
 30
0.0
 11
779.2266666666667
 21
392.0
 31
0.0
  0
LWPOLYLINE
  5
24C
330
17
100
AcDbEntity
  8
SYMBOLS
100
AcDbPolyline
 90
3
 70
1
 10
777.3566666666667
 20
392.0
 10
781.0966666666667
 20
392.0
 10
779.2266666666667
 20
388.6
  0
TEXT
  5
24D
330
17
100
AcDbEntity
  8
TITLE
100
AcDbText
 10
610.04
 20
380.0
 30
0.0
 40
2.9
  1
AL1-800A-1台 700*400*1700 户内落地
  7
CJK
 72
1
 11
610.04
 21
380.0
 31
0.0
100
AcDbText
  0
LWPOLYLINE
  5
24E
330
17
100
AcDbEntity
  8
TABLE
100
AcDbPolyline
 90
4
 70
1
 10
24.0
 20
24.0
 10
422.0
 20
24.0
 10
422.0
 20
80.0
 10
24.0
 20
80.0
  0
LINE
  5
24F
330
17
100
AcDbEntity
  8
TABLE
100
AcDbLine
 10
24.0
 20
73.0
 30
0.0
 11
422.0
 21
73.0
 31
0.0
  0
LINE
  5
250
330
17
100
AcDbEntity
  8
TABLE
100
AcDbLine
 10
24.0
 20
66.0
 30
0.0
 11
422.0
 21
66.0
 31
0.0
  0
LINE
  5
251
330
17
100
AcDbEntity
  8
TABLE
100
AcDbLine
 10
24.0
 20
59.0
 30
0.0
 11
422.0
 21
59.0
 31
0.0
  0
LINE
  5
252
330
17
100
AcDbEntity
  8
TABLE
100
AcDbLine
 10
24.0
 20
52.0
 30
0.0
 11
422.0
 21
52.0
 31
0.0
  0
LINE
  5
253
330
17
100
AcDbEntity
  8
TABLE
100
AcDbLine
 10
24.0
 20
45.0
 30
0.0
 11
422.0
 21
45.0
 31
0.0
  0
LINE
  5
254
330
17
100
AcDbEntity
  8
TABLE
100
AcDbLine
 10
24.0
 20
38.0
 30
0.0
 11
422.0
 21
38.0
 31
0.0
  0
LINE
  5
255
330
17
100
AcDbEntity
  8
TABLE
100
AcDbLine
 10
24.0
 20
31.0
 30
0.0
 11
422.0
 21
31.0
 31
0.0
  0
LINE
  5
256
330
17
100
AcDbEntity
  8
TABLE
100
AcDbLine
 10
52.54183266932271
 20
24.0
 30
0.0
 11
52.54183266932271
 21
80.0
 31
0.0
  0
LINE
  5
257
330
17
100
AcDbEntity
  8
TABLE
100
AcDbLine
 10
119.13944223107569
 20
24.0
 30
0.0
 11
119.13944223107569
 21
80.0
 31
0.0
  0
LINE
  5
258
330
17
100
AcDbEntity
  8
TABLE
100
AcDbLine
 10
206.35059760956176
 20
24.0
 30
0.0
 11
206.35059760956176
 21
80.0
 31
0.0
  0
LINE
  5
259
330
17
100
AcDbEntity
  8
TABLE
100
AcDbLine
 10
330.0318725099602
 20
24.0
 30
0.0
 11
330.0318725099602
 21
80.0
 31
0.0
  0
LINE
  5
25A
330
17
100
AcDbEntity
  8
TABLE
100
AcDbLine
 10
364.9163346613546
 20
24.0
 30
0.0
 11
364.9163346613546
 21
80.0
 31
0.0
  0
TEXT
  5
25B
330
17
100
AcDbEntity
  8
TABLE
100
AcDbText
 10
38.27091633466135
 20
76.5
 30
0.0
 40
2.05
  1
7
  7
CJK
 72
1
 11
38.27091633466135
 21
76.5
 31
0.0
100
AcDbText
 73
2
  0
TEXT
  5
25C
330
17
100
AcDbEntity
  8
TABLE
100
AcDbText
 10
85.84063745019921
 20
76.5
 30
0.0
 40
2.05
  1
HR1~HG1
  7
CJK
 72
1
 11
85.84063745019921
 21
76.5
 31
0.0
100
AcDbText
 73
2
  0
TEXT
  5
25D
330
17
100
AcDbEntity
  8
TABLE
100
AcDbText
 10
162.74501992031873
 20
76.5
 30
0.0
 40
2.05
  1
指示灯
  7
CJK
 72
1
 11
162.74501992031873
 21
76.5
 31
0.0
100
AcDbText
 73
2
  0
TEXT
  5
25E
330
17
100
AcDbEntity
  8
TABLE
100
AcDbText
 10
268.19123505976097
 20
76.5
 30
0.0
 40
2.05
  1
AD16-22 AC220V
  7
CJK
 72
1
 11
268.19123505976097
 21
76.5
 31
0.0
100
AcDbText
 73
2
  0
TEXT
  5
25F
330
17
100
AcDbEntity
  8
TABLE
100
AcDbText
 10
347.4741035856574
 20
76.5
 30
0.0
 40
2.05
  1
3
  7
CJK
 72
1
 11
347.4741035856574
 21
76.5
 31
0.0
100
AcDbText
 73
2
  0
TEXT
  5
260
330
17
100
AcDbEntity
  8
TABLE
100
AcDbText
 10
393.4581673306773
 20
76.5
 30
0.0
 40
2.05
  1
红黄绿
  7
CJK
 72
1
 11
393.4581673306773
 21
76.5
 31
0.0
100
AcDbText
 73
2
  0
TEXT
  5
261
330
17
100
AcDbEntity
  8
TABLE
100
AcDbText
 10
38.27091633466135
 20
69.5
 30
0.0
 40
2.05
  1
6
  7
CJK
 72
1
 11
38.27091633466135
 21
69.5
 31
0.0
100
AcDbText
 73
2
  0
TEXT
  5
262
330
17
100
AcDbEntity
  8
TABLE
100
AcDbText
 10
85.84063745019921
 20
69.5
 30
0.0
 40
2.05
  1
PAa~PAc
  7
CJK
 72
1
 11
85.84063745019921
 21
69.5
 31
0.0
100
AcDbText
 73
2
  0
TEXT
  5
263
330
17
100
AcDbEntity
  8
TABLE
100
AcDbText
 10
162.74501992031873
 20
69.5
 30
0.0
 40
2.05
  1
电流表
  7
CJK
 72
1
 11
162.74501992031873
 21
69.5
 31
0.0
100
AcDbText
 73
2
  0
TEXT
  5
264
330
17
100
AcDbEntity
  8
TABLE
100
AcDbText
 10
268.19123505976097
 20
69.5
 30
0.0
 40
2.05
  1
6L2 400/5
  7
CJK
 72
1
 11
268.19123505976097
 21
69.5
 31
0.0
100
AcDbText
 73
2
  0
TEXT
  5
265
330
17
100
AcDbEntity
  8
TABLE
100
AcDbText
 10
347.4741035856574
 20
69.5
 30
0.0
 40
2.05
  1
3
  7
CJK
 72
1
 11
347.4741035856574
 21
69.5
 31
0.0
100
AcDbText
 73
2
  0
TEXT
  5
266
330
17
100
AcDbEntity
  8
TABLE
100
AcDbText
 10
393.4581673306773
 20
69.5
 30
0.0
 40
2.05
  1

  7
CJK
 72
1
 11
393.4581673306773
 21
69.5
 31
0.0
100
AcDbText
 73
2
  0
TEXT
  5
267
330
17
100
AcDbEntity
  8
TABLE
100
AcDbText
 10
38.27091633466135
 20
62.5
 30
0.0
 40
2.05
  1
5
  7
CJK
 72
1
 11
38.27091633466135
 21
62.5
 31
0.0
100
AcDbText
 73
2
  0
TEXT
  5
268
330
17
100
AcDbEntity
  8
TABLE
100
AcDbText
 10
85.84063745019921
 20
62.5
 30
0.0
 40
2.05
  1
PV
  7
CJK
 72
1
 11
85.84063745019921
 21
62.5
 31
0.0
100
AcDbText
 73
2
  0
TEXT
  5
269
330
17
100
AcDbEntity
  8
TABLE
100
AcDbText
 10
162.74501992031873
 20
62.5
 30
0.0
 40
2.05
  1
电压表
  7
CJK
 72
1
 11
162.74501992031873
 21
62.5
 31
0.0
100
AcDbText
 73
2
  0
TEXT
  5
26A
330
17
100
AcDbEntity
  8
TABLE
100
AcDbText
 10
268.19123505976097
 20
62.5
 30
0.0
 40
2.05
  1
6L2 450V
  7
CJK
 72
1
 11
268.19123505976097
 21
62.5
 31
0.0
100
AcDbText
 73
2
  0
TEXT
  5
26B
330
17
100
AcDbEntity
  8
TABLE
100
AcDbText
 10
347.4741035856574
 20
62.5
 30
0.0
 40
2.05
  1
1
  7
CJK
 72
1
 11
347.4741035856574
 21
62.5
 31
0.0
100
AcDbText
 73
2
  0
TEXT
  5
26C
330
17
100
AcDbEntity
  8
TABLE
100
AcDbText
 10
393.4581673306773
 20
62.5
 30
0.0
 40
2.05
  1

  7
CJK
 72
1
 11
393.4581673306773
 21
62.5
 31
0.0
100
AcDbText
 73
2
  0
TEXT
  5
26D
330
17
100
AcDbEntity
  8
TABLE
100
AcDbText
 10
38.27091633466135
 20
55.5
 30
0.0
 40
2.05
  1
4
  7
CJK
 72
1
 11
38.27091633466135
 21
55.5
 31
0.0
100
AcDbText
 73
2
  0
TEXT
  5
26E
330
17
100
AcDbEntity
  8
TABLE
100
AcDbText
 10
85.84063745019921
 20
55.5
 30
0.0
 40
2.05
  1
FU
  7
CJK
 72
1
 11
85.84063745019921
 21
55.5
 31
0.0
100
AcDbText
 73
2
  0
TEXT
  5
26F
330
17
100
AcDbEntity
  8
TABLE
100
AcDbText
 10
162.74501992031873
 20
55.5
 30
0.0
 40
2.05
  1
熔断器
  7
CJK
 72
1
 11
162.74501992031873
 21
55.5
 31
0.0
100
AcDbText
 73
2
  0
TEXT
  5
270
330
17
100
AcDbEntity
  8
TABLE
100
AcDbText
 10
268.19123505976097
 20
55.5
 30
0.0
 40
2.05
  1
RT18-32
  7
CJK
 72
1
 11
268.19123505976097
 21
55.5
 31
0.0
100
AcDbText
 73
2
  0
TEXT
  5
271
330
17
100
AcDbEntity
  8
TABLE
100
AcDbText
 10
347.4741035856574
 20
55.5
 30
0.0
 40
2.05
  1
4
  7
CJK
 72
1
 11
347.4741035856574
 21
55.5
 31
0.0
100
AcDbText
 73
2
  0
TEXT
  5
272
330
17
100
AcDbEntity
  8
TABLE
100
AcDbText
 10
393.4581673306773
 20
55.5
 30
0.0
 40
2.05
  1

  7
CJK
 72
1
 11
393.4581673306773
 21
55.5
 31
0.0
100
AcDbText
 73
2
  0
TEXT
  5
273
330
17
100
AcDbEntity
  8
TABLE
100
AcDbText
 10
38.27091633466135
 20
48.5
 30
0.0
 40
2.05
  1
3
  7
CJK
 72
1
 11
38.27091633466135
 21
48.5
 31
0.0
100
AcDbText
 73
2
  0
TEXT
  5
274
330
17
100
AcDbEntity
  8
TABLE
100
AcDbText
 10
85.84063745019921
 20
48.5
 30
0.0
 40
2.05
  1
PJ
  7
CJK
 72
1
 11
85.84063745019921
 21
48.5
 31
0.0
100
AcDbText
 73
2
  0
TEXT
  5
275
330
17
100
AcDbEntity
  8
TABLE
100
AcDbText
 10
162.74501992031873
 20
48.5
 30
0.0
 40
2.05
  1
计量表
  7
CJK
 72
1
 11
162.74501992031873
 21
48.5
 31
0.0
100
AcDbText
 73
2
  0
TEXT
  5
276
330
17
100
AcDbEntity
  8
TABLE
100
AcDbText
 10
268.19123505976097
 20
48.5
 30
0.0
 40
2.05
  1
DTS-1.5(6)A
  7
CJK
 72
1
 11
268.19123505976097
 21
48.5
 31
0.0
100
AcDbText
 73
2
  0
TEXT
  5
277
330
17
100
AcDbEntity
  8
TABLE
100
AcDbText
 10
347.4741035856574
 20
48.5
 30
0.0
 40
2.05
  1
1
  7
CJK
 72
1
 11
347.4741035856574
 21
48.5
 31
0.0
100
AcDbText
 73
2
  0
TEXT
  5
278
330
17
100
AcDbEntity
  8
TABLE
100
AcDbText
 10
393.4581673306773
 20
48.5
 30
0.0
 40
2.05
  1

  7
CJK
 72
1
 11
393.4581673306773
 21
48.5
 31
0.0
100
AcDbText
 73
2
  0
TEXT
  5
279
330
17
100
AcDbEntity
  8
TABLE
100
AcDbText
 10
38.27091633466135
 20
41.5
 30
0.0
 40
2.05
  1
2
  7
CJK
 72
1
 11
38.27091633466135
 21
41.5
 31
0.0
100
AcDbText
 73
2
  0
TEXT
  5
27A
330
17
100
AcDbEntity
  8
TABLE
100
AcDbText
 10
85.84063745019921
 20
41.5
 30
0.0
 40
2.05
  1
TAa~TAc
  7
CJK
 72
1
 11
85.84063745019921
 21
41.5
 31
0.0
100
AcDbText
 73
2
  0
TEXT
  5
27B
330
17
100
AcDbEntity
  8
TABLE
100
AcDbText
 10
162.74501992031873
 20
41.5
 30
0.0
 40
2.05
  1
互感器
  7
CJK
 72
1
 11
162.74501992031873
 21
41.5
 31
0.0
100
AcDbText
 73
2
  0
TEXT
  5
27C
330
17
100
AcDbEntity
  8
TABLE
100
AcDbText
 10
268.19123505976097
 20
41.5
 30
0.0
 40
2.05
  1
LMZJ1-0.5 400/5
  7
CJK
 72
1
 11
268.19123505976097
 21
41.5
 31
0.0
100
AcDbText
 73
2
  0
TEXT
  5
27D
330
17
100
AcDbEntity
  8
TABLE
100
AcDbText
 10
347.4741035856574
 20
41.5
 30
0.0
 40
2.05
  1
3
  7
CJK
 72
1
 11
347.4741035856574
 21
41.5
 31
0.0
100
AcDbText
 73
2
  0
TEXT
  5
27E
330
17
100
AcDbEntity
  8
TABLE
100
AcDbText
 10
393.4581673306773
 20
41.5
 30
0.0
 40
2.05
  1

  7
CJK
 72
1
 11
393.4581673306773
 21
41.5
 31
0.0
100
AcDbText
 73
2
  0
TEXT
  5
27F
330
17
100
AcDbEntity
  8
TABLE
100
AcDbText
 10
38.27091633466135
 20
34.5
 30
0.0
 40
2.05
  1
1
  7
CJK
 72
1
 11
38.27091633466135
 21
34.5
 31
0.0
100
AcDbText
 73
2
  0
TEXT
  5
280
330
17
100
AcDbEntity
  8
TABLE
100
AcDbText
 10
85.84063745019921
 20
34.5
 30
0.0
 40
2.05
  1
SA
  7
CJK
 72
1
 11
85.84063745019921
 21
34.5
 31
0.0
100
AcDbText
 73
2
  0
TEXT
  5
281
330
17
100
AcDbEntity
  8
TABLE
100
AcDbText
 10
162.74501992031873
 20
34.5
 30
0.0
 40
2.05
  1
电压转换开关
  7
CJK
 72
1
 11
162.74501992031873
 21
34.5
 31
0.0
100
AcDbText
 73
2
  0
TEXT
  5
282
330
17
100
AcDbEntity
  8
TABLE
100
AcDbText
 10
268.19123505976097
 20
34.5
 30
0.0
 40
2.05
  1
LW5D-3
  7
CJK
 72
1
 11
268.19123505976097
 21
34.5
 31
0.0
100
AcDbText
 73
2
  0
TEXT
  5
283
330
17
100
AcDbEntity
  8
TABLE
100
AcDbText
 10
347.4741035856574
 20
34.5
 30
0.0
 40
2.05
  1
1
  7
CJK
 72
1
 11
347.4741035856574
 21
34.5
 31
0.0
100
AcDbText
 73
2
  0
TEXT
  5
284
330
17
100
AcDbEntity
  8
TABLE
100
AcDbText
 10
393.4581673306773
 20
34.5
 30
0.0
 40
2.05
  1

  7
CJK
 72
1
 11
393.4581673306773
 21
34.5
 31
0.0
100
AcDbText
 73
2
  0
TEXT
  5
285
330
17
100
AcDbEntity
  8
TABLE
100
AcDbText
 10
38.27091633466135
 20
27.5
 30
0.0
 40
2.2
  1
序号
  7
CJK
 72
1
 11
38.27091633466135
 21
27.5
 31
0.0
100
AcDbText
 73
2
  0
TEXT
  5
286
330
17
100
AcDbEntity
  8
TABLE
100
AcDbText
 10
85.84063745019921
 20
27.5
 30
0.0
 40
2.2
  1
符号
  7
CJK
 72
1
 11
85.84063745019921
 21
27.5
 31
0.0
100
AcDbText
 73
2
  0
TEXT
  5
287
330
17
100
AcDbEntity
  8
TABLE
100
AcDbText
 10
162.74501992031873
 20
27.5
 30
0.0
 40
2.2
  1
名称
  7
CJK
 72
1
 11
162.74501992031873
 21
27.5
 31
0.0
100
AcDbText
 73
2
  0
TEXT
  5
288
330
17
100
AcDbEntity
  8
TABLE
100
AcDbText
 10
268.19123505976097
 20
27.5
 30
0.0
 40
2.2
  1
型号规格
  7
CJK
 72
1
 11
268.19123505976097
 21
27.5
 31
0.0
100
AcDbText
 73
2
  0
TEXT
  5
289
330
17
100
AcDbEntity
  8
TABLE
100
AcDbText
 10
347.4741035856574
 20
27.5
 30
0.0
 40
2.2
  1
数量
  7
CJK
 72
1
 11
347.4741035856574
 21
27.5
 31
0.0
100
AcDbText
 73
2
  0
TEXT
  5
28A
330
17
100
AcDbEntity
  8
TABLE
100
AcDbText
 10
393.4581673306773
 20
27.5
 30
0.0
 40
2.2
  1
备注
  7
CJK
 72
1
 11
393.4581673306773
 21
27.5
 31
0.0
100
AcDbText
 73
2
  0
LWPOLYLINE
  5
28B
330
17
100
AcDbEntity
  8
TITLE
100
AcDbPolyline
 90
4
 70
1
 10
449.84
 20
24.0
 10
816.0
 20
24.0
 10
816.0
 20
86.0
 10
449.84
 20
86.0
  0
LINE
  5
28C
330
17
100
AcDbEntity
  8
TITLE
100
AcDbLine
 10
493.77919999999995
 20
24.0
 30
0.0
 11
493.77919999999995
 21
86.0
 31
0.0
  0
LINE
  5
28D
330
17
100
AcDbEntity
  8
TITLE
100
AcDbLine
 10
545.0415999999999
 20
24.0
 30
0.0
 11
545.0415999999999
 21
86.0
 31
0.0
  0
LINE
  5
28E
330
17
100
AcDbEntity
  8
TITLE
100
AcDbLine
 10
581.6575999999999
 20
24.0
 30
0.0
 11
581.6575999999999
 21
86.0
 31
0.0
  0
LINE
  5
28F
330
17
100
AcDbEntity
  8
TITLE
100
AcDbLine
 10
632.9199999999998
 20
24.0
 30
0.0
 11
632.9199999999998
 21
86.0
 31
0.0
  0
LINE
  5
290
330
17
100
AcDbEntity
  8
TITLE
100
AcDbLine
 10
662.2127999999999
 20
24.0
 30
0.0
 11
662.2127999999999
 21
86.0
 31
0.0
  0
LINE
  5
291
330
17
100
AcDbEntity
  8
TITLE
100
AcDbLine
 10
742.7679999999999
 20
24.0
 30
0.0
 11
742.7679999999999
 21
86.0
 31
0.0
  0
LINE
  5
292
330
17
100
AcDbEntity
  8
TITLE
100
AcDbLine
 10
773.52544
 20
24.0
 30
0.0
 11
773.52544
 21
86.0
 31
0.0
  0
LINE
  5
293
330
17
100
AcDbEntity
  8
TITLE
100
AcDbLine
 10
449.84
 20
68.64
 30
0.0
 11
816.0
 21
68.64
 31
0.0
  0
LINE
  5
294
330
17
100
AcDbEntity
  8
TITLE
100
AcDbLine
 10
632.9199999999998
 20
55.0
 30
0.0
 11
816.0
 21
55.0
 31
0.0
  0
LINE
  5
295
330
17
100
AcDbEntity
  8
TITLE
100
AcDbLine
 10
449.84
 20
60.89
 30
0.0
 11
632.9199999999998
 21
60.89
 31
0.0
  0
LINE
  5
296
330
17
100
AcDbEntity
  8
TITLE
100
AcDbLine
 10
449.84
 20
53.14
 30
0.0
 11
632.9199999999998
 21
53.14
 31
0.0
  0
LINE
  5
297
330
17
100
AcDbEntity
  8
TITLE
100
AcDbLine
 10
449.84
 20
45.39
 30
0.0
 11
632.9199999999998
 21
45.39
 31
0.0
  0
LINE
  5
298
330
17
100
AcDbEntity
  8
TITLE
100
AcDbLine
 10
742.7679999999999
 20
36.4
 30
0.0
 11
816.0
 21
36.4
 31
0.0
  0
LINE
  5
299
330
17
100
AcDbEntity
  8
TITLE
100
AcDbLine
 10
742.7679999999999
 20
48.8
 30
0.0
 11
816.0
 21
48.8
 31
0.0
  0
LINE
  5
29A
330
17
100
AcDbEntity
  8
TITLE
100
AcDbLine
 10
742.7679999999999
 20
61.2
 30
0.0
 11
816.0
 21
61.2
 31
0.0
  0
LINE
  5
29B
330
17
100
AcDbEntity
  8
TITLE
100
AcDbLine
 10
742.7679999999999
 20
73.6
 30
0.0
 11
816.0
 21
73.6
 31
0.0
  0
TEXT
  5
29C
330
17
100
AcDbEntity
  8
TITLE
100
AcDbText
 10
541.3799999999999
 20
77.32
 30
0.0
 40
3.2
  1
东方电力设备公司
  7
CJK
 72
1
 11
541.3799999999999
 21
77.32
 31
0.0
100
AcDbText
 73
2
  0
TEXT
  5
29D
330
17
100
AcDbEntity
  8
TITLE
100
AcDbText
 10
647.5663999999999
 20
77.32
 30
0.0
 40
2.2
  1
项目
  7
CJK
 72
1
 11
647.5663999999999
 21
77.32
 31
0.0
100
AcDbText
 73
2
  0
TEXT
  5
29E
330
17
100
AcDbEntity
  8
TITLE
100
AcDbText
 10
702.4903999999999
 20
77.32
 30
0.0
 40
2.6
  1
配电箱2台/项目
  7
CJK
 72
1
 11
702.4903999999999
 21
77.32
 31
0.0
100
AcDbText
 73
2
  0
TEXT
  5
29F
330
17
100
AcDbEntity
  8
TITLE
100
AcDbText
 10
647.5663999999999
 20
61.82
 30
0.0
 40
2.2
  1
图名
  7
CJK
 72
1
 11
647.5663999999999
 21
61.82
 31
0.0
100
AcDbText
 73
2
  0
TEXT
  5
2A0
330
17
100
AcDbEntity
  8
TITLE
100
AcDbText
 10
702.4903999999999
 20
61.138
 30
0.0
 40
3.0
  1
AL1-800A-1台
  7
CJK
 72
1
 11
702.4903999999999
 21
61.138
 31
0.0
100
AcDbText
 73
2
  0
TEXT
  5
2A1
330
17
100
AcDbEntity
  8
TITLE
100
AcDbText
 10
702.4903999999999
 20
56.6368
 30
0.0
 40
1.9
  1
第  页  共  页
  7
CJK
 72
1
 11
702.4903999999999
 21
56.6368
 31
0.0
100
AcDbText
 73
2
  0
TEXT
  5
2A2
330
17
100
AcDbEntity
  8
TITLE
100
AcDbText
 10
471.80959999999993
 20
64.765
 30
0.0
 40
2.0
  1
总工程师
  7
CJK
 72
1
 11
471.80959999999993
 21
64.765
 31
0.0
100
AcDbText
 73
2
  0
TEXT
  5
2A3
330
17
100
AcDbEntity
  8
TITLE
100
AcDbText
 10
563.3495999999999
 20
64.765
 30
0.0
 40
2.0
  1
审核
  7
CJK
 72
1
 11
563.3495999999999
 21
64.765
 31
0.0
100
AcDbText
 73
2
  0
TEXT
  5
2A4
330
17
100
AcDbEntity
  8
TITLE
100
AcDbText
 10
471.80959999999993
 20
57.015
 30
0.0
 40
2.0
  1
设计工程师
  7
CJK
 72
1
 11
471.80959999999993
 21
57.015
 31
0.0
100
AcDbText
 73
2
  0
TEXT
  5
2A5
330
17
100
AcDbEntity
  8
TITLE
100
AcDbText
 10
563.3495999999999
 20
57.015
 30
0.0
 40
2.0
  1
校对
  7
CJK
 72
1
 11
563.3495999999999
 21
57.015
 31
0.0
100
AcDbText
 73
2
  0
TEXT
  5
2A6
330
17
100
AcDbEntity
  8
TITLE
100
AcDbText
 10
471.80959999999993
 20
49.265
 30
0.0
 40
2.0
  1
主任工程师
  7
CJK
 72
1
 11
471.80959999999993
 21
49.265
 31
0.0
100
AcDbText
 73
2
  0
TEXT
  5
2A7
330
17
100
AcDbEntity
  8
TITLE
100
AcDbText
 10
563.3495999999999
 20
49.265
 30
0.0
 40
2.0
  1
制图
  7
CJK
 72
1
 11
563.3495999999999
 21
49.265
 31
0.0
100
AcDbText
 73
2
  0
TEXT
  5
2A8
330
17
100
AcDbEntity
  8
TITLE
100
AcDbText
 10
471.80959999999993
 20
41.515
 30
0.0
 40
2.0
  1
专业设计
  7
CJK
 72
1
 11
471.80959999999993
 21
41.515
 31
0.0
100
AcDbText
 73
2
  0
TEXT
  5
2A9
330
17
100
AcDbEntity
  8
TITLE
100
AcDbText
 10
563.3495999999999
 20
41.515
 30
0.0
 40
2.0
  1
日期
  7
CJK
 72
1
 11
563.3495999999999
 21
41.515
 31
0.0
100
AcDbText
 73
2
  0
TEXT
  5
2AA
330
17
100
AcDbEntity
  8
TITLE
100
AcDbText
 10
758.14672
 20
79.8
 30
0.0
 40
1.9
  1
子项名
  7
CJK
 72
1
 11
758.14672
 21
79.8
 31
0.0
100
AcDbText
 73
2
  0
TEXT
  5
2AB
330
17
100
AcDbEntity
  8
TITLE
100
AcDbText
 10
758.14672
 20
67.4
 30
0.0
 40
1.9
  1
设计阶段
  7
CJK
 72
1
 11
758.14672
 21
67.4
 31
0.0
100
AcDbText
 73
2
  0
TEXT
  5
2AC
330
17
100
AcDbEntity
  8
TITLE
100
AcDbText
 10
758.14672
 20
55.0
 30
0.0
 40
1.9
  1
比例
  7
CJK
 72
1
 11
758.14672
 21
55.0
 31
0.0
100
AcDbText
 73
2
  0
TEXT
  5
2AD
330
17
100
AcDbEntity
  8
TITLE
100
AcDbText
 10
758.14672
 20
42.6
 30
0.0
 40
1.9
  1
设计号
  7
CJK
 72
1
 11
758.14672
 21
42.6
 31
0.0
100
AcDbText
 73
2
  0
TEXT
  5
2AE
330
17
100
AcDbEntity
  8
TITLE
100
AcDbText
 10
758.14672
 20
30.199999999999996
 30
0.0
 40
1.9
  1
图号
  7
CJK
 72
1
 11
758.14672
 21
30.199999999999996
 31
0.0
100
AcDbText
 73
2
  0
ENDSEC
  0
SECTION
  2
OBJECTS
  0
DICTIONARY
  5
A
330
0
100
AcDbDictionary
281
1
  3
ACAD_COLOR
350
B
  3
ACAD_GROUP
350
C
  3
ACAD_LAYOUT
350
D
  3
ACAD_MATERIAL
350
E
  3
ACAD_MLEADERSTYLE
350
F
  3
ACAD_MLINESTYLE
350
10
  3
ACAD_PLOTSETTINGS
350
11
  3
ACAD_PLOTSTYLENAME
350
12
  3
ACAD_SCALELIST
350
14
  3
ACAD_TABLESTYLE
350
15
  3
ACAD_VISUALSTYLE
350
16
  3
EZDXF_META
350
2D
  0
DICTIONARY
  5
B
330
A
100
AcDbDictionary
281
1
  0
DICTIONARY
  5
C
330
A
100
AcDbDictionary
281
1
  0
DICTIONARY
  5
D
330
A
100
AcDbDictionary
281
1
  3
Model
350
1A
  3
Layout1
350
1E
  0
DICTIONARY
  5
E
330
A
100
AcDbDictionary
281
1
  3
ByBlock
350
1F
  3
ByLayer
350
20
  3
Global
350
21
  0
DICTIONARY
  5
F
330
A
100
AcDbDictionary
281
1
  3
Standard
350
2C
  0
DICTIONARY
  5
10
330
A
100
AcDbDictionary
281
1
  3
Standard
350
22
  0
DICTIONARY
  5
11
330
A
100
AcDbDictionary
281
1
  0
ACDBDICTIONARYWDFLT
  5
12
330
A
100
AcDbDictionary
281
1
  3
Normal
350
13
100
AcDbDictionaryWithDefault
340
13
  0
ACDBPLACEHOLDER
  5
13
330
12
  0
DICTIONARY
  5
14
330
A
100
AcDbDictionary
281
1
  0
DICTIONARY
  5
15
330
A
100
AcDbDictionary
281
1
  0
DICTIONARY
  5
16
330
A
100
AcDbDictionary
281
1
  3
2dWireframe
350
5A
  3
Basic
350
5B
  3
Brighten
350
5C
  3
ColorChange
350
5D
  3
Conceptual
350
5E
  3
Dim
350
5F
  3
EdgeColorOff
350
60
  3
Facepattern
350
61
  3
Flat
350
62
  3
FlatWithEdges
350
63
  3
Gouraud
350
64
  3
GouraudWithEdges
350
65
  3
Hidden
350
66
  3
JitterOff
350
67
  3
Linepattern
350
68
  3
Modeling
350
69
  3
OverhangOff
350
6A
  3
Realistic
350
6B
  3
Shaded
350
6C
  3
Shaded with edges
350
6D
  3
Shades of Gray
350
6E
  3
Sketchy
350
6F
  3
Thicken
350
70
  3
Wireframe
350
71
  3
X-Ray
350
72
  0
LAYOUT
  5
1A
330
D
100
AcDbPlotSettings
  1

  4
A3
  6

 40
7.5
 41
20.0
 42
7.5
 43
20.0
 44
420.0
 45
297.0
 46
0.0
 47
0.0
 48
0.0
 49
0.0
140
0.0
141
0.0
142
1.0
143
1.0
 70
1024
 72
1
 73
0
 74
5
  7

 75
16
 76
0
 77
2
 78
300
147
1.0
148
0.0
149
0.0
100
AcDbLayout
  1
Model
 70
1
 71
0
 10
0.0
 20
0.0
 11
420.0
 21
297.0
 12
0.0
 22
0.0
 32
0.0
 14
1e+20
 24
1e+20
 34
1e+20
 15
-1e+20
 25
-1e+20
 35
-1e+20
146
0.0
 13
0.0
 23
0.0
 33
0.0
 16
1.0
 26
0.0
 36
0.0
 17
0.0
 27
1.0
 37
0.0
 76
1
330
17
  0
LAYOUT
  5
1E
330
D
100
AcDbPlotSettings
  1

  4
A3
  6

 40
7.5
 41
20.0
 42
7.5
 43
20.0
 44
420.0
 45
297.0
 46
0.0
 47
0.0
 48
0.0
 49
0.0
140
0.0
141
0.0
142
1.0
143
1.0
 70
0
 72
1
 73
0
 74
5
  7

 75
16
 76
0
 77
2
 78
300
147
1.0
148
0.0
149
0.0
100
AcDbLayout
  1
Layout1
 70
1
 71
1
 10
0.0
 20
0.0
 11
420.0
 21
297.0
 12
0.0
 22
0.0
 32
0.0
 14
1e+20
 24
1e+20
 34
1e+20
 15
-1e+20
 25
-1e+20
 35
-1e+20
146
0.0
 13
0.0
 23
0.0
 33
0.0
 16
1.0
 26
0.0
 36
0.0
 17
0.0
 27
1.0
 37
0.0
 76
1
330
1B
  0
MATERIAL
  5
1F
102
{ACAD_REACTORS
330
E
102
}
330
E
100
AcDbMaterial
  1
ByBlock
  2

 70
0
 40
1.0
 71
1
 41
1.0
 91
-1023410177
 42
1.0
 72
1
  3

 73
1
 74
1
 75
1
 44
0.5
 73
0
 45
1.0
 46
1.0
 77
1
  4

 78
1
 79
1
170
1
 48
1.0
171
1
  6

172
1
173
1
174
1
140
1.0
141
1.0
175
1
  7

176
1
177
1
178
1
143
1.0
179
1
  8

270
1
271
1
272
1
145
1.0
146
1.0
273
1
  9

274
1
275
1
276
1
 42
1.0
 72
1
  3

 73
1
 74
1
 75
1
 94
63
  0
MATERIAL
  5
20
102
{ACAD_REACTORS
330
E
102
}
330
E
100
AcDbMaterial
  1
ByLayer
  2

 70
0
 40
1.0
 71
1
 41
1.0
 91
-1023410177
 42
1.0
 72
1
  3

 73
1
 74
1
 75
1
 44
0.5
 73
0
 45
1.0
 46
1.0
 77
1
  4

 78
1
 79
1
170
1
 48
1.0
171
1
  6

172
1
173
1
174
1
140
1.0
141
1.0
175
1
  7

176
1
177
1
178
1
143
1.0
179
1
  8

270
1
271
1
272
1
145
1.0
146
1.0
273
1
  9

274
1
275
1
276
1
 42
1.0
 72
1
  3

 73
1
 74
1
 75
1
 94
63
  0
MATERIAL
  5
21
102
{ACAD_REACTORS
330
E
102
}
330
E
100
AcDbMaterial
  1
Global
  2

 70
0
 40
1.0
 71
1
 41
1.0
 91
-1023410177
 42
1.0
 72
1
  3

 73
1
 74
1
 75
1
 44
0.5
 73
0
 45
1.0
 46
1.0
 77
1
  4

 78
1
 79
1
170
1
 48
1.0
171
1
  6

172
1
173
1
174
1
140
1.0
141
1.0
175
1
  7

176
1
177
1
178
1
143
1.0
179
1
  8

270
1
271
1
272
1
145
1.0
146
1.0
273
1
  9

274
1
275
1
276
1
 42
1.0
 72
1
  3

 73
1
 74
1
 75
1
 94
63
  0
MLINESTYLE
  5
22
102
{ACAD_REACTORS
330
10
102
}
330
10
100
AcDbMlineStyle
  2
Standard
 70
0
  3

 62
256
 51
90.0
 52
90.0
 71
2
 49
0.5
 62
256
  6
BYLAYER
 49
-0.5
 62
256
  6
BYLAYER
  0
MLEADERSTYLE
  5
2C
102
{ACAD_REACTORS
330
F
102
}
330
F
100
AcDbMLeaderStyle
179
2
170
2
171
1
172
0
 90
2
 40
0.0
 41
0.0
173
1
 91
-1056964608
 92
-2
290
1
 42
2.0
291
1
 43
8.0
  3
Standard
 44
4.0
300

342
29
174
1
175
1
176
0
178
1
 93
-1056964608
 45
4.0
292
0
297
0
 46
4.0
 94
-1056964608
 47
1.0
 49
1.0
140
1.0
294
1
141
0.0
177
0
142
1.0
295
0
296
0
143
3.75
271
0
272
9
273
9
  0
DICTIONARY
  5
2D
330
A
100
AcDbDictionary
280
1
281
1
  3
CREATED_BY_EZDXF
350
2E
  3
WRITTEN_BY_EZDXF
350
2B1
  0
DICTIONARYVAR
  5
2E
330
2D
100
DictionaryVariables
280
0
  1
1.4.4 @ 2026-09-14T02:32:46.540788+00:00
  0
VISUALSTYLE
  5
5A
102
{ACAD_REACTORS
330
16
102
}
330
16
100
AcDbVisualStyle
  2
2dWireframe
 70
4
 90
0
 40
0.6
 62
7
290
0
291
0
  0
VISUALSTYLE
  5
5B
102
{ACAD_REACTORS
330
16
102
}
330
16
100
AcDbVisualStyle
  2
Basic
 70
7
 90
1
 40
0.6
 62
7
290
0
291
1
  0
VISUALSTYLE
  5
5C
102
{ACAD_REACTORS
330
16
102
}
330
16
100
AcDbVisualStyle
  2
Brighten
 70
12
 90
2
 40
0.6
 62
7
290
0
291
1
  0
VISUALSTYLE
  5
5D
102
{ACAD_REACTORS
330
16
102
}
330
16
100
AcDbVisualStyle
  2
ColorChange
 70
16
 90
2
 40
0.6
 62
8
290
0
291
1
  0
VISUALSTYLE
  5
5E
102
{ACAD_REACTORS
330
16
102
}
330
16
100
AcDbVisualStyle
  2
Conceptual
 70
9
 90
3
 40
0.6
 62
7
290
0
291
0
  0
VISUALSTYLE
  5
5F
102
{ACAD_REACTORS
330
16
102
}
330
16
100
AcDbVisualStyle
  2
Dim
 70
11
 90
2
 40
0.6
 62
7
290
0
291
1
  0
VISUALSTYLE
  5
60
102
{ACAD_REACTORS
330
16
102
}
330
16
100
AcDbVisualStyle
  2
EdgeColorOff
 70
22
 90
2
 40
0.6
 62
7
290
0
291
1
  0
VISUALSTYLE
  5
61
102
{ACAD_REACTORS
330
16
102
}
330
16
100
AcDbVisualStyle
  2
Facepattern
 70
15
 90
2
 40
0.6
 62
7
290
0
291
1
  0
VISUALSTYLE
  5
62
102
{ACAD_REACTORS
330
16
102
}
330
16
100
AcDbVisualStyle
  2
Flat
 70
0
 90
2
 40
0.6
 62
7
290
0
291
1
  0
VISUALSTYLE
  5
63
102
{ACAD_REACTORS
330
16
102
}
330
16
100
AcDbVisualStyle
  2
FlatWithEdges
 70
1
 90
2
 40
0.6
 62
7
290
0
291
1
  0
VISUALSTYLE
  5
64
102
{ACAD_REACTORS
330
16
102
}
330
16
100
AcDbVisualStyle
  2
Gouraud
 70
2
 90
2
 40
0.6
 62
7
290
0
291
1
  0
VISUALSTYLE
  5
65
102
{ACAD_REACTORS
330
16
102
}
330
16
100
AcDbVisualStyle
  2
GouraudWithEdges
 70
3
 90
2
 40
0.6
 62
7
290
0
291
1
  0
VISUALSTYLE
  5
66
102
{ACAD_REACTORS
330
16
102
}
330
16
100
AcDbVisualStyle
  2
Hidden
 70
6
 90
1
 40
0.6
 62
7
290
0
291
0
  0
VISUALSTYLE
  5
67
102
{ACAD_REACTORS
330
16
102
}
330
16
100
AcDbVisualStyle
  2
JitterOff
 70
20
 90
2
 40
0.6
 62
7
290
0
291
1
  0
VISUALSTYLE
  5
68
102
{ACAD_REACTORS
330
16
102
}
330
16
100
AcDbVisualStyle
  2
Linepattern
 70
14
 90
2
 40
0.6
 62
7
290
0
291
1
  0
VISUALSTYLE
  5
69
102
{ACAD_REACTORS
330
16
102
}
330
16
100
AcDbVisualStyle
  2
Modeling
 70
10
 90
2
 40
0.6
 62
7
290
0
291
0
  0
VISUALSTYLE
  5
6A
102
{ACAD_REACTORS
330
16
102
}
330
16
100
AcDbVisualStyle
  2
OverhangOff
 70
21
 90
2
 40
0.6
 62
7
290
0
291
1
  0
VISUALSTYLE
  5
6B
102
{ACAD_REACTORS
330
16
102
}
330
16
100
AcDbVisualStyle
  2
Realistic
 70
8
 90
2
 40
0.6
 62
7
290
0
291
0
  0
VISUALSTYLE
  5
6C
102
{ACAD_REACTORS
330
16
102
}
330
16
100
AcDbVisualStyle
  2
Shaded
 70
27
 90
2
 40
0.6
 62
7
290
0
291
0
  0
VISUALSTYLE
  5
6D
102
{ACAD_REACTORS
330
16
102
}
330
16
100
AcDbVisualStyle
  2
Shaded with edges
 70
26
 90
2
 40
0.6
 62
7
290
0
291
0
  0
VISUALSTYLE
  5
6E
102
{ACAD_REACTORS
330
16
102
}
330
16
100
AcDbVisualStyle
  2
Shades of Gray
 70
23
 90
2
 40
0.6
 62
7
290
0
291
0
  0
VISUALSTYLE
  5
6F
102
{ACAD_REACTORS
330
16
102
}
330
16
100
AcDbVisualStyle
  2
Sketchy
 70
24
 90
1
 40
0.6
 62
7
290
0
291
0
  0
VISUALSTYLE
  5
70
102
{ACAD_REACTORS
330
16
102
}
330
16
100
AcDbVisualStyle
  2
Thicken
 70
13
 90
2
 40
0.6
 62
7
290
0
291
1
  0
VISUALSTYLE
  5
71
102
{ACAD_REACTORS
330
16
102
}
330
16
100
AcDbVisualStyle
  2
Wireframe
 70
5
 90
0
 40
0.6
 62
7
290
0
291
0
  0
VISUALSTYLE
  5
72
102
{ACAD_REACTORS
330
16
102
}
330
16
100
AcDbVisualStyle
  2
X-Ray
 70
25
 90
2
 40
0.5
 62
7
290
0
291
0
  0
DICTIONARYVAR
  5
2B1
330
2D
100
DictionaryVariables
280
0
  1
1.4.4 @ 2026-09-14T02:32:46.552081+00:00
  0
ENDSEC
  0
EOF
